<?xml version="1.0" encoding="UTF-8"?>
<svg id="Layer_3" data-name="Layer 3" xmlns="http://www.w3.org/2000/svg" viewBox="0 0 796.85 144.57">
  <defs>
    <style>
      .cls-1, .cls-2, .cls-3, .cls-4, .cls-5, .cls-6 {
        fill: #e7e5e3;
      }

      .cls-1, .cls-2, .cls-3, .cls-5, .cls-6 {
        font-family: Montserrat-Bold, Montserrat;
        font-weight: 700;
      }

      .cls-1, .cls-5, .cls-6 {
        font-size: 9.77px;
      }

      .cls-2 {
        font-size: 13.62px;
      }

      .cls-3 {
        font-size: 16.03px;
      }

      .cls-5 {
        letter-spacing: -.02em;
      }

      .cls-7, .cls-6 {
        letter-spacing: -.02em;
      }

      .cls-8 {
        letter-spacing: -.02em;
      }
    </style>
  </defs>
  <rect x="272.28" width="252.28" height="144.57"/>
  <rect width="252.28" height="144.57"/>
  <g>
    <path class="cls-4" d="M84.64,39.9l5.14,8.89c.09.16.05.23-.14.23h-6.94c-.15,0-.26-.06-.33-.19l-8.43-14.6c-.05-.08-.02-.18.06-.22.03-.01.06-.02.08-.02,1.9.04,3.79.04,5.66.02.82-.01,1.47-.11,1.94-.31,1.49-.61,2.16-2.26,1.67-3.75-.46-1.43-1.51-2.14-3.14-2.14-5.39.01-8.48.01-9.28,0-.47,0-.82-.2-1.06-.61l-3.25-5.64s-.01-.1.03-.13c.01,0,.03-.01.04-.01,6.17-.07,11.07-.04,14.71.09,5.23.18,8.97,5.15,8.46,10.26-.33,3.29-2.03,5.82-5.09,7.57-.19.11-.26.36-.14.55Z"/>
    <path class="cls-4" d="M56.85,30.91c.14,0,.25-.07.33-.21,1.47-2.57,3.23-5.61,5.26-9.1.04-.07.08-.07.11,0l15.72,27.23c.03.05.01.12-.04.15-.02,0-.03.01-.05.01h-6.8c-.27,0-.52-.14-.66-.38l-8.08-14c-.05-.08-.16-.11-.24-.06-.03.02-.05.04-.06.06-.58,1.02-1.04,1.79-1.37,2.32-.32.51-.32,1.01,0,1.51.24.38,2.25,3.84,6.04,10.4.03.05.01.12-.04.15-.02,0-.03.01-.05.02h-7.04c-.14,0-.24-.06-.31-.17-.75-1.24-1.56-2.67-2.44-4.3-.09-.17-.18-.25-.28-.25s-.19.08-.27.25c-.88,1.63-1.69,3.06-2.44,4.3-.07.11-.17.17-.31.17h-7.04c-.06,0-.11-.05-.11-.11,0-.02,0-.04.01-.05,3.78-6.55,5.79-10.02,6.04-10.39.32-.5.32-1,0-1.51-.33-.53-.79-1.31-1.37-2.32-.05-.08-.16-.11-.24-.06-.03.02-.05.04-.06.06l-8.09,13.99c-.14.23-.39.38-.66.38h-6.8c-.06,0-.11-.05-.11-.11,0-.02,0-.04.01-.05l15.73-27.23c.04-.07.07-.07.11,0,2.04,3.49,3.79,6.53,5.26,9.1.08.14.19.21.33.21Z"/>
    <polygon class="cls-4" points="35.79 41.92 28.42 41.92 28.42 38.16 37.96 38.16 41.59 31.89 28.42 31.89 28.42 28.59 43.49 28.59 47.64 21.4 20.59 21.4 20.59 49.02 31.69 49.02 35.79 41.92"/>
  </g>
  <g>
    <text class="cls-2" transform="translate(19.41 66.31)"><tspan x="0" y="0">EMR </tspan></text>
    <text class="cls-2" transform="translate(55.42 66.31)"><tspan x="0" y="0">K</tspan></text>
    <text class="cls-2" transform="translate(65.36 66.31)"><tspan x="0" y="0">i</tspan></text>
    <text class="cls-2" transform="translate(69.46 66.31)"><tspan x="0" y="0">t</tspan></text>
    <text class="cls-2" transform="translate(75.16 66.31)"><tspan x="0" y="0">c</tspan></text>
    <text class="cls-2" transform="translate(83.15 66.31)"><tspan x="0" y="0">h</tspan></text>
    <text class="cls-2" transform="translate(92.65 66.31)"><tspan x="0" y="0">ens &amp; Joi</tspan></text>
    <text class="cls-2" transform="translate(155.9 66.31)"><tspan x="0" y="0">n</tspan></text>
    <text class="cls-2" transform="translate(165.39 66.31)"><tspan x="0" y="0">e</tspan></text>
    <text class="cls-2" transform="translate(173.98 66.31)"><tspan x="0" y="0">r</tspan></text>
    <text class="cls-2" transform="translate(180.06 66.31)"><tspan x="0" y="0">y</tspan></text>
  </g>
  <g>
    <text class="cls-1" transform="translate(37.74 93.93)"><tspan x="0" y="0">0</tspan></text>
    <text class="cls-1" transform="translate(44.33 93.93)"><tspan x="0" y="0">7951 664 508</tspan></text>
  </g>
  <g>
    <text class="cls-6" transform="translate(37.74 115.16)"><tspan x="0" y="0">@em</tspan></text>
    <text class="cls-1" transform="translate(63.67 115.16)"><tspan class="cls-8" x="0" y="0">r</tspan><tspan class="cls-7" x="3.98" y="0">k</tspan></text>
    <text class="cls-5" transform="translate(73.86 115.16)"><tspan x="0" y="0">i</tspan></text>
    <text class="cls-6" transform="translate(76.61 115.16)"><tspan x="0" y="0">t</tspan></text>
    <text class="cls-6" transform="translate(80.5 115.16)"><tspan x="0" y="0">c</tspan></text>
    <text class="cls-6" transform="translate(86.04 115.16)"><tspan x="0" y="0">h</tspan></text>
    <text class="cls-6" transform="translate(92.65 115.16)"><tspan x="0" y="0">ensa</tspan></text>
    <text class="cls-6" transform="translate(116 115.16)"><tspan x="0" y="0">n</tspan></text>
    <text class="cls-6" transform="translate(122.61 115.16)"><tspan x="0" y="0">djoi</tspan></text>
    <text class="cls-6" transform="translate(140.93 115.16)"><tspan x="0" y="0">n</tspan></text>
    <text class="cls-6" transform="translate(147.54 115.16)"><tspan x="0" y="0">e</tspan></text>
    <text class="cls-6" transform="translate(153.51 115.16)"><tspan x="0" y="0">r</tspan></text>
    <text class="cls-6" transform="translate(157.67 115.16)"><tspan x="0" y="0">y</tspan></text>
  </g>
  <g>
    <path class="cls-4" d="M29.29,105.47c.36,0,.72.01,1.08.02.68.02,1.32.05,1.97.22.79.21,1.45.63,1.96,1.24.62.74.9,1.68.96,2.63,0,.17.02.34.03.5v5.38c0,.21-.02.46-.04.75-.03.47-.13.93-.29,1.36-.27.75-.76,1.39-1.42,1.84-.66.45-1.46.67-2.26.73-.65.05-1.33.06-2,.06h-2.67c-.56,0-1.12-.02-1.68-.04-.94-.04-1.91-.24-2.67-.81-.55-.41-.99-.95-1.25-1.59-.21-.5-.32-1.02-.36-1.57-.04-.57-.06-1.2-.06-1.89,0-1.22,0-2.41,0-3.42,0-.42.02-.88.05-1.36.04-.59.17-1.15.39-1.68.3-.69.83-1.29,1.47-1.68.61-.38,1.38-.57,2.1-.63.64-.05,1.33-.05,2-.06h2.68ZM27.95,118.88c1.03,0,1.96,0,3.01-.04.63-.03,1.28-.14,1.79-.48.44-.29.75-.67.94-1.16.22-.57.25-1.15.27-1.78.01-.47.02-.93.02-1.37,0-1.4,0-2.45,0-3.14,0-.45-.02-.86-.05-1.25-.02-.37-.09-.71-.2-1.02-.24-.71-.77-1.27-1.49-1.53-.35-.12-.72-.2-1.11-.22-1.08-.06-2.23-.06-3.18-.06-1.03,0-1.96,0-3.01.04-.63.03-1.28.15-1.79.48-.44.29-.75.67-.94,1.16-.22.57-.25,1.15-.27,1.78-.01.47-.02.93-.02,1.37,0,1.4,0,2.45,0,3.14,0,.45.02.86.05,1.25.02.37.09.71.2,1.02.24.71.77,1.27,1.49,1.53.35.12.72.2,1.11.22,1.08.06,2.23.06,3.18.06Z"/>
    <path class="cls-4" d="M31.89,108.02c.49,0,.88.4.88.88s-.4.88-.88.88-.88-.4-.88-.88.4-.88.88-.88Z"/>
    <path class="cls-4" d="M31.74,112.84c0,2.09-1.69,3.78-3.78,3.78s-3.78-1.69-3.78-3.78,1.69-3.78,3.78-3.78h0c2.09,0,3.78,1.69,3.78,3.78ZM30.41,112.84c0-1.36-1.1-2.45-2.45-2.45h0c-1.36,0-2.45,1.1-2.45,2.45h0c0,1.36,1.1,2.45,2.45,2.45h0c1.36,0,2.45-1.1,2.45-2.45Z"/>
  </g>
  <g>
    <path class="cls-4" d="M29.29,83.24c.36,0,.72.01,1.08.02.68.02,1.32.05,1.97.22.79.21,1.45.63,1.96,1.24.62.74.9,1.68.96,2.63,0,.17.02.34.03.5v5.38c0,.21-.02.46-.04.75-.03.47-.13.93-.29,1.36-.27.75-.76,1.39-1.42,1.84-.66.45-1.46.67-2.26.73-.65.05-1.33.06-2,.06h-2.67c-.56,0-1.12-.02-1.68-.04-.94-.04-1.91-.24-2.67-.81-.55-.41-.99-.95-1.25-1.59-.21-.5-.32-1.02-.36-1.57-.04-.57-.06-1.2-.06-1.89,0-1.22,0-2.41,0-3.42,0-.42.02-.88.05-1.36.04-.59.17-1.15.39-1.68.3-.69.83-1.29,1.47-1.68.61-.38,1.38-.57,2.1-.63.64-.05,1.33-.05,2-.06h2.68ZM27.95,96.64c1.03,0,1.96,0,3.01-.04.63-.03,1.28-.14,1.79-.48.44-.29.75-.67.94-1.16.22-.57.25-1.15.27-1.78.01-.47.02-.93.02-1.37,0-1.4,0-2.45,0-3.14,0-.45-.02-.86-.05-1.25-.02-.37-.09-.71-.2-1.02-.24-.71-.77-1.27-1.49-1.53-.35-.12-.72-.2-1.11-.22-1.08-.06-2.23-.06-3.18-.06-1.03,0-1.96,0-3.01.04-.63.03-1.28.15-1.79.48-.44.29-.75.67-.94,1.16-.22.57-.25,1.15-.27,1.78-.01.47-.02.93-.02,1.37,0,1.4,0,2.45,0,3.14,0,.45.02.86.05,1.26.02.37.09.71.2,1.02.24.71.77,1.27,1.49,1.53.35.12.72.2,1.11.22,1.08.06,2.23.06,3.18.06Z"/>
    <path class="cls-4" d="M29.86,95.23c-.37,0-.74-.07-1.04-.17-.24-.08-.5-.2-.78-.37-.59-.36-1.13-.78-1.61-1.27-.93-.94-1.63-1.87-2.15-2.85-.7-1.31-.81-2.46-.3-3.4.43-.81,1.26-1.25,2.21-1.2.2.01.35.06.48.15.3.2.44.54.5.78.13.55.23,1.03.3,1.44.04.25.1.58-.22.87-.18.16-.35.23-.55.31l-.09.04s.02.07.04.12c.35.85.9,1.56,1.63,2.1.19.14.34.25.44.31h0v-.02c.18-.29.55-.88,1.17-.68.4.13.75.27,1.26.5.22.1.44.21.65.33.56.33.4.97.35,1.18-.15.62-.5,1.12-1.03,1.47-.37.25-.82.34-1.26.34ZM26.02,86.8c-.58,0-1.05.27-1.31.76-.37.69-.27,1.55.3,2.62.48.9,1.14,1.77,2.01,2.66.43.44.92.82,1.45,1.15.22.14.43.23.6.29.46.15,1.14.22,1.58-.08.36-.24.58-.56.69-.99.05-.21.03-.26.03-.27-.19-.11-.37-.2-.56-.29-.49-.21-.82-.35-1.19-.47-.02.03-.15.24-.2.33l-.07.11c-.09.14-.22.25-.37.3-.33.12-.65-.07-.75-.13-.11-.07-.26-.18-.47-.33-.85-.63-1.49-1.46-1.9-2.45-.08-.19-.12-.36-.13-.52h0c0-.13.01-.44.41-.62l.22-.1c.17-.07.24-.1.31-.16-.01,0-.02-.05-.03-.09-.07-.42-.17-.88-.3-1.42-.04-.16-.1-.26-.15-.29h0s-.03,0-.08-.01c-.04,0-.08,0-.11,0Z"/>
  </g>
  <g>
    <path class="cls-4" d="M471.02,83.86l12.69,21.97c.23.39.11.58-.34.58h-17.15c-.36,0-.63-.15-.81-.46l-20.83-36.08c-.11-.19-.05-.44.15-.55.06-.04.14-.06.21-.05,4.71.09,9.36.1,13.97.04,2.04-.03,3.64-.28,4.8-.75,3.67-1.52,5.34-5.58,4.13-9.26-1.15-3.53-3.73-5.29-7.75-5.28-13.31.03-20.95.03-22.92.02-1.16,0-2.03-.5-2.61-1.51l-8.04-13.93c-.06-.11-.03-.25.08-.32.03-.02.07-.03.11-.03,15.25-.16,27.36-.09,36.33.22,12.91.44,22.17,12.73,20.91,25.35-.81,8.14-5.01,14.37-12.58,18.7-.47.27-.63.88-.36,1.35Z"/>
    <path class="cls-4" d="M402.38,61.66c.34,0,.61-.17.81-.52,3.64-6.36,7.98-13.85,13.01-22.48.1-.16.19-.16.28,0l38.85,67.29c.07.13.03.3-.1.37-.04.02-.09.04-.13.04h-16.81c-.67,0-1.29-.36-1.62-.94l-19.97-34.58c-.12-.21-.39-.28-.59-.16-.07.04-.12.09-.16.16-1.43,2.51-2.56,4.43-3.38,5.74-.79,1.25-.78,2.5,0,3.73.6.93,5.57,9.49,14.91,25.69.07.12.03.28-.1.36-.04.02-.09.04-.13.04h-17.4c-.34,0-.59-.14-.76-.43-1.85-3.06-3.86-6.6-6.02-10.62-.22-.41-.45-.62-.69-.62s-.46.21-.68.62c-2.17,4.02-4.17,7.56-6.02,10.62-.17.28-.43.43-.76.43h-17.4c-.15-.01-.27-.13-.27-.28,0-.05.01-.09.04-.13,9.34-16.19,14.31-24.75,14.91-25.68.79-1.24.8-2.48,0-3.73-.83-1.32-1.95-3.23-3.38-5.74-.12-.21-.39-.28-.59-.16-.07.04-.12.09-.16.16l-19.98,34.57c-.34.58-.95.94-1.62.94h-16.81c-.15,0-.27-.12-.27-.27,0-.05.01-.09.04-.13l38.86-67.28c.09-.16.18-.16.28,0,5.03,8.63,9.36,16.13,13.01,22.48.2.35.47.52.81.52Z"/>
    <polygon class="cls-4" points="350.34 88.87 332.14 88.87 332.14 79.59 355.7 79.59 364.66 64.08 332.14 64.08 332.14 55.92 369.37 55.92 379.62 38.17 312.77 38.17 312.77 106.41 340.21 106.41 350.34 88.87"/>
  </g>
  <rect x="544.57" width="252.28" height="144.57"/>
  <g>
    <g>
      <path class="cls-4" d="M648.08,65.49l6.05,10.47c.11.18.05.28-.16.28h-8.17c-.17,0-.3-.07-.39-.22l-9.93-17.19c-.05-.09-.02-.21.07-.26.03-.02.06-.03.1-.03,2.24.04,4.46.05,6.66.02.97-.01,1.73-.13,2.29-.36,1.75-.72,2.54-2.66,1.97-4.41-.55-1.68-1.78-2.52-3.69-2.52-6.34.01-9.98.02-10.92,0-.55,0-.97-.24-1.24-.72l-3.83-6.64c-.03-.05-.01-.12.04-.15.02,0,.03-.01.05-.01,7.26-.08,13.04-.04,17.31.11,6.15.21,10.56,6.06,9.96,12.08-.39,3.88-2.39,6.85-5.99,8.91-.22.13-.3.42-.17.65Z"/>
      <path class="cls-4" d="M615.37,54.91c.16,0,.29-.08.39-.25,1.74-3.03,3.8-6.6,6.2-10.71.05-.08.09-.08.13,0l18.51,32.06c.04.06.01.14-.05.18-.02.01-.04.02-.06.02h-8.01c-.32,0-.61-.17-.77-.45l-9.52-16.48c-.06-.1-.18-.13-.28-.08-.03.02-.06.04-.08.08-.68,1.2-1.22,2.11-1.61,2.74-.37.6-.37,1.19,0,1.78.29.44,2.65,4.52,7.11,12.24.04.06.01.14-.05.17-.02.01-.04.02-.06.02h-8.29c-.16,0-.28-.07-.36-.2-.88-1.46-1.84-3.14-2.87-5.06-.1-.2-.21-.29-.33-.29s-.22.1-.32.29c-1.03,1.92-1.99,3.6-2.87,5.06-.08.14-.2.2-.36.2h-8.29c-.07,0-.13-.06-.13-.13,0-.02,0-.04.02-.06,4.45-7.71,6.82-11.79,7.11-12.23.38-.59.38-1.18,0-1.78-.39-.63-.93-1.54-1.61-2.74-.06-.1-.18-.13-.28-.08-.03.02-.06.04-.08.08l-9.52,16.47c-.16.28-.45.45-.77.45h-8.01c-.07,0-.13-.06-.13-.13,0-.02,0-.04.02-.06l18.51-32.06c.04-.08.09-.08.13,0,2.4,4.11,4.46,7.68,6.2,10.71.1.17.22.25.39.25Z"/>
      <polygon class="cls-4" points="590.58 67.88 581.9 67.88 581.9 63.46 593.13 63.46 597.4 56.07 581.9 56.07 581.9 52.18 599.64 52.18 604.53 43.72 572.68 43.72 572.68 76.24 585.75 76.24 590.58 67.88"/>
    </g>
    <g>
      <text class="cls-3" transform="translate(571.29 96.59)"><tspan x="0" y="0">EMR </tspan></text>
      <text class="cls-3" transform="translate(613.68 96.59)"><tspan x="0" y="0">K</tspan></text>
      <text class="cls-3" transform="translate(625.39 96.59)"><tspan x="0" y="0">i</tspan></text>
      <text class="cls-3" transform="translate(630.22 96.59)"><tspan x="0" y="0">t</tspan></text>
      <text class="cls-3" transform="translate(636.92 96.59)"><tspan x="0" y="0">c</tspan></text>
      <text class="cls-3" transform="translate(646.33 96.59)"><tspan x="0" y="0">h</tspan></text>
      <text class="cls-3" transform="translate(657.5 96.59)"><tspan x="0" y="0">ens &amp; Joi</tspan></text>
      <text class="cls-3" transform="translate(731.96 96.59)"><tspan x="0" y="0">n</tspan></text>
      <text class="cls-3" transform="translate(743.14 96.59)"><tspan x="0" y="0">e</tspan></text>
      <text class="cls-3" transform="translate(753.26 96.59)"><tspan x="0" y="0">r</tspan></text>
      <text class="cls-3" transform="translate(760.41 96.59)"><tspan x="0" y="0">y</tspan></text>
    </g>
  </g>
</svg>