<?xml version="1.0" encoding="UTF-8"?>
<svg id="Layer_3" data-name="Layer 3" xmlns="http://www.w3.org/2000/svg" viewBox="0 0 252.28 144.57">
  <defs>
    <style>
      .cls-1 {
        font-family: Montserrat-Bold, Montserrat;
        font-size: 16.03px;
        font-weight: 700;
      }

      .cls-1, .cls-2 {
        fill: #e7e5e3;
      }

      .cls-3 {
        letter-spacing: 0em;
      }

      .cls-4 {
        letter-spacing: 0em;
      }

      .cls-5 {
        letter-spacing: 0em;
      }

      .cls-6 {
        letter-spacing: 0em;
      }

      .cls-7 {
        letter-spacing: -.02em;
      }

      .cls-8 {
        letter-spacing: .01em;
      }
    </style>
  </defs>
  <rect width="252.28" height="144.57"/>
  <g>
    <g>
      <path class="cls-2" d="M103.51,65.49l6.05,10.47c.11.18.05.28-.16.28h-8.17c-.17,0-.3-.07-.39-.22l-9.93-17.19c-.05-.09-.02-.21.07-.26.03-.02.06-.03.1-.03,2.24.04,4.46.05,6.66.02.97-.01,1.73-.13,2.29-.36,1.75-.72,2.54-2.66,1.97-4.41-.55-1.68-1.78-2.52-3.69-2.52-6.34.01-9.98.02-10.92,0-.55,0-.97-.24-1.24-.72l-3.83-6.64c-.03-.05-.01-.12.04-.15.02,0,.03-.01.05-.01,7.26-.08,13.04-.04,17.31.11,6.15.21,10.56,6.06,9.96,12.08-.39,3.88-2.39,6.85-5.99,8.91-.22.13-.3.42-.17.65Z"/>
      <path class="cls-2" d="M70.8,54.91c.16,0,.29-.08.39-.25,1.74-3.03,3.8-6.6,6.2-10.71.05-.08.09-.08.13,0l18.51,32.06c.04.06.01.14-.05.18-.02.01-.04.02-.06.02h-8.01c-.32,0-.61-.17-.77-.45l-9.52-16.48c-.06-.1-.18-.13-.28-.08-.03.02-.06.04-.08.08-.68,1.2-1.22,2.11-1.61,2.74-.37.6-.37,1.19,0,1.78.29.44,2.65,4.52,7.11,12.24.04.06.01.14-.05.17-.02.01-.04.02-.06.02h-8.29c-.16,0-.28-.07-.36-.2-.88-1.46-1.84-3.14-2.87-5.06-.1-.2-.21-.29-.33-.29s-.22.1-.32.29c-1.03,1.92-1.99,3.6-2.87,5.06-.08.14-.2.2-.36.2h-8.29c-.07,0-.13-.06-.13-.13,0-.02,0-.04.02-.06,4.45-7.71,6.82-11.79,7.11-12.23.38-.59.38-1.18,0-1.78-.39-.63-.93-1.54-1.61-2.74-.06-.1-.18-.13-.28-.08-.03.02-.06.04-.08.08l-9.52,16.47c-.16.28-.45.45-.77.45h-8.01c-.07,0-.13-.06-.13-.13,0-.02,0-.04.02-.06l18.51-32.06c.04-.08.09-.08.13,0,2.4,4.11,4.46,7.68,6.2,10.71.1.17.22.25.39.25Z"/>
      <polygon class="cls-2" points="46.01 67.88 37.34 67.88 37.34 63.46 48.56 63.46 52.83 56.07 37.34 56.07 37.34 52.18 55.08 52.18 59.96 43.72 28.11 43.72 28.11 76.24 41.18 76.24 46.01 67.88"/>
    </g>
    <text class="cls-1" transform="translate(26.73 96.59)"><tspan x="0" y="0">EMR </tspan><tspan class="cls-3" x="42.39" y="0">K</tspan><tspan x="54.1" y="0">i</tspan><tspan class="cls-7" x="58.92" y="0">t</tspan><tspan class="cls-6" x="65.63" y="0">c</tspan><tspan class="cls-4" x="75.04" y="0">h</tspan><tspan x="86.21" y="0">ens &amp; Joi</tspan><tspan class="cls-4" x="160.67" y="0">n</tspan><tspan x="171.85" y="0">e</tspan><tspan class="cls-8" x="181.97" y="0">r</tspan><tspan class="cls-5" x="189.12" y="0">y</tspan></text>
  </g>
</svg>