<?xml version="1.0" encoding="UTF-8"?>
<svg id="Layer_3" data-name="Layer 3" xmlns="http://www.w3.org/2000/svg" viewBox="0 0 252.28 144.57">
  <defs>
    <style>
      .cls-1 {
        letter-spacing: 0em;
      }

      .cls-2 {
        font-size: 9.77px;
      }

      .cls-2, .cls-3, .cls-4 {
        fill: #e7e5e3;
      }

      .cls-2, .cls-4 {
        font-family: Montserrat-Bold, Montserrat;
        font-weight: 700;
      }

      .cls-5 {
        letter-spacing: 0em;
      }

      .cls-6 {
        letter-spacing: -.01em;
      }

      .cls-7 {
        letter-spacing: -.02em;
      }

      .cls-8 {
        letter-spacing: 0em;
      }

      .cls-9 {
        letter-spacing: -.02em;
      }

      .cls-10 {
        letter-spacing: -.02em;
      }

      .cls-11 {
        letter-spacing: -.04em;
      }

      .cls-12 {
        letter-spacing: -.01em;
      }

      .cls-13 {
        letter-spacing: 0em;
      }

      .cls-14 {
        letter-spacing: 0em;
      }

      .cls-15 {
        letter-spacing: 0em;
      }

      .cls-16 {
        letter-spacing: -.01em;
      }

      .cls-17 {
        letter-spacing: 0em;
      }

      .cls-4 {
        font-size: 13.62px;
      }

      .cls-18 {
        letter-spacing: .01em;
      }
    </style>
  </defs>
  <rect width="252.28" height="144.57"/>
  <g>
    <path class="cls-3" d="M84.64,39.9l5.14,8.89c.09.16.05.23-.14.23h-6.94c-.15,0-.26-.06-.33-.19l-8.43-14.6c-.05-.08-.02-.18.06-.22.03-.01.05-.02.08-.02,1.9.04,3.79.04,5.66.02.82-.01,1.47-.11,1.94-.31,1.49-.61,2.16-2.26,1.67-3.75-.46-1.43-1.51-2.14-3.14-2.14-5.39.01-8.48.01-9.28,0-.47,0-.82-.2-1.06-.61l-3.25-5.64s-.01-.1.03-.13c.01,0,.03-.01.04-.01,6.17-.07,11.07-.04,14.71.09,5.23.18,8.97,5.15,8.46,10.26-.33,3.29-2.03,5.82-5.09,7.57-.19.11-.26.36-.14.55Z"/>
    <path class="cls-3" d="M56.85,30.91c.14,0,.25-.07.33-.21,1.47-2.57,3.23-5.61,5.26-9.1.04-.07.08-.07.11,0l15.72,27.23c.03.05.01.12-.04.15-.02,0-.03.01-.05.01h-6.8c-.27,0-.52-.14-.66-.38l-8.08-14c-.05-.08-.16-.11-.24-.06-.03.02-.05.04-.06.06-.58,1.02-1.04,1.79-1.37,2.33-.32.51-.32,1.01,0,1.51.24.38,2.25,3.84,6.04,10.4.03.05.01.12-.04.15-.02,0-.03.01-.05.02h-7.04c-.14,0-.24-.06-.31-.17-.75-1.24-1.56-2.67-2.44-4.3-.09-.17-.18-.25-.28-.25s-.19.08-.27.25c-.88,1.63-1.69,3.06-2.44,4.3-.07.11-.17.17-.31.17h-7.04c-.06,0-.11-.05-.11-.11,0-.02,0-.04.01-.05,3.78-6.55,5.79-10.02,6.04-10.39.32-.5.32-1,0-1.51-.33-.53-.79-1.31-1.37-2.33-.05-.08-.16-.11-.24-.06-.03.02-.05.04-.06.06l-8.09,13.99c-.14.23-.39.38-.66.38h-6.8c-.06,0-.11-.05-.11-.11,0-.02,0-.04.01-.05l15.73-27.23c.04-.07.07-.07.11,0,2.04,3.49,3.79,6.53,5.26,9.1.08.14.19.21.33.21Z"/>
    <polygon class="cls-3" points="35.79 41.92 28.42 41.92 28.42 38.16 37.96 38.16 41.59 31.89 28.42 31.89 28.42 28.59 43.49 28.59 47.64 21.4 20.59 21.4 20.59 49.02 31.69 49.02 35.79 41.92"/>
  </g>
  <text class="cls-4" transform="translate(19.41 66.31)"><tspan x="0" y="0">EMR </tspan><tspan class="cls-12" x="36.01" y="0">K</tspan><tspan x="45.95" y="0">i</tspan><tspan class="cls-7" x="50.05" y="0">t</tspan><tspan class="cls-1" x="55.75" y="0">c</tspan><tspan class="cls-8" x="63.74" y="0">h</tspan><tspan class="cls-5" x="73.23" y="0">ens &amp; Joi</tspan><tspan class="cls-15" x="136.49" y="0">n</tspan><tspan x="145.98" y="0">e</tspan><tspan class="cls-18" x="154.57" y="0">r</tspan><tspan class="cls-17" x="160.65" y="0">y</tspan></text>
  <text class="cls-2" transform="translate(37.74 93.93)"><tspan class="cls-13" x="0" y="0">0</tspan><tspan x="6.59" y="0">7951 664 508</tspan></text>
  <text class="cls-2" transform="translate(37.74 115.15)"><tspan class="cls-10" x="0" y="0">@em</tspan><tspan class="cls-9" x="25.94" y="0">rk</tspan><tspan class="cls-10" x="36.13" y="0">i</tspan><tspan class="cls-11" x="38.87" y="0">t</tspan><tspan class="cls-9" x="42.76" y="0">c</tspan><tspan class="cls-6" x="48.3" y="0">h</tspan><tspan class="cls-10" x="54.91" y="0">ensa</tspan><tspan class="cls-16" x="78.26" y="0">n</tspan><tspan class="cls-10" x="84.88" y="0">djoi</tspan><tspan class="cls-6" x="103.19" y="0">n</tspan><tspan class="cls-10" x="109.81" y="0">e</tspan><tspan class="cls-14" x="115.78" y="0">r</tspan><tspan class="cls-10" x="119.94" y="0">y</tspan></text>
  <g>
    <path class="cls-3" d="M29.29,105.47c.36,0,.72.01,1.08.02.68.02,1.32.05,1.97.22.79.21,1.45.63,1.96,1.24.62.74.9,1.68.96,2.63,0,.17.02.34.03.5v5.38c0,.21-.02.46-.04.75-.03.47-.13.93-.29,1.36-.27.75-.76,1.39-1.42,1.84-.66.45-1.46.67-2.26.73-.65.05-1.33.06-2,.06h-2.67c-.56,0-1.12-.02-1.68-.04-.94-.04-1.91-.24-2.67-.81-.55-.41-.99-.95-1.25-1.59-.21-.5-.32-1.02-.36-1.57-.04-.57-.06-1.2-.06-1.89,0-1.22,0-2.41,0-3.42,0-.42.02-.88.05-1.36.04-.59.17-1.15.39-1.68.3-.69.83-1.29,1.47-1.68.61-.38,1.38-.57,2.1-.63.64-.05,1.33-.05,2-.06h2.68ZM27.95,118.87c1.03,0,1.96,0,3.01-.04.63-.03,1.28-.14,1.79-.48.44-.29.75-.67.94-1.16.22-.57.25-1.15.27-1.78.01-.47.02-.93.02-1.37,0-1.4,0-2.45,0-3.14,0-.45-.02-.87-.05-1.25-.02-.37-.09-.71-.2-1.02-.24-.71-.77-1.27-1.49-1.53-.35-.12-.72-.2-1.11-.22-1.08-.06-2.23-.06-3.18-.06-1.03,0-1.96,0-3.01.04-.63.03-1.28.14-1.79.48-.44.29-.75.67-.94,1.16-.22.57-.25,1.15-.27,1.78-.01.47-.02.93-.02,1.37,0,1.4,0,2.45,0,3.14,0,.45.02.87.05,1.25.02.37.09.71.2,1.02.24.71.77,1.27,1.49,1.53.35.12.72.2,1.11.22,1.08.06,2.23.06,3.18.06Z"/>
    <circle class="cls-3" cx="31.89" cy="108.9" r=".88"/>
    <path class="cls-3" d="M31.74,112.84c0,2.09-1.69,3.78-3.78,3.78s-3.78-1.69-3.78-3.78c0-2.09,1.69-3.78,3.78-3.78h0c2.09,0,3.78,1.69,3.78,3.78ZM30.41,112.84c0-1.36-1.1-2.45-2.45-2.45h0c-1.36,0-2.45,1.1-2.45,2.45h0c0,1.36,1.1,2.45,2.45,2.45h0c1.36,0,2.45-1.1,2.45-2.45Z"/>
  </g>
  <g>
    <path class="cls-3" d="M29.29,83.24c.36,0,.72.01,1.08.02.68.02,1.32.05,1.97.22.79.21,1.45.63,1.96,1.24.62.74.9,1.68.96,2.63,0,.17.02.34.03.5v5.38c0,.21-.02.46-.04.75-.03.47-.13.93-.29,1.36-.27.75-.76,1.39-1.42,1.84-.66.45-1.46.67-2.26.73-.65.05-1.33.06-2,.06h-2.67c-.56,0-1.12-.02-1.68-.04-.94-.04-1.91-.24-2.67-.81-.55-.41-.99-.95-1.25-1.59-.21-.5-.32-1.02-.36-1.57-.04-.57-.06-1.2-.06-1.89,0-1.22,0-2.41,0-3.42,0-.42.02-.88.05-1.36.04-.59.17-1.15.39-1.68.3-.69.83-1.29,1.47-1.68.61-.38,1.38-.57,2.1-.63.64-.05,1.33-.05,2-.06h2.68ZM27.95,96.64c1.03,0,1.96,0,3.01-.04.63-.03,1.28-.14,1.79-.48.44-.29.75-.67.94-1.16.22-.57.25-1.15.27-1.78.01-.47.02-.93.02-1.37,0-1.4,0-2.45,0-3.14,0-.45-.02-.87-.05-1.25-.02-.37-.09-.71-.2-1.02-.24-.71-.77-1.27-1.49-1.53-.35-.12-.72-.2-1.11-.22-1.08-.06-2.23-.06-3.18-.06-1.03,0-1.96,0-3.01.04-.63.03-1.28.14-1.79.48-.44.29-.75.67-.94,1.16-.22.57-.25,1.15-.27,1.78-.01.47-.02.93-.02,1.37,0,1.4,0,2.45,0,3.14,0,.45.02.87.05,1.25.02.37.09.71.2,1.02.24.71.77,1.27,1.49,1.53.35.12.72.2,1.11.22,1.08.06,2.23.06,3.18.06Z"/>
    <path class="cls-3" d="M29.86,95.23c-.37,0-.74-.07-1.04-.17-.24-.08-.5-.2-.78-.37-.59-.36-1.13-.78-1.61-1.27-.93-.94-1.63-1.87-2.15-2.85-.7-1.31-.81-2.46-.3-3.4.43-.81,1.26-1.25,2.21-1.2.2.01.35.06.48.15.3.2.44.54.5.78.13.55.23,1.03.3,1.44.04.25.1.58-.22.87-.18.16-.35.23-.55.31l-.09.04s.02.07.04.12c.35.85.9,1.56,1.63,2.1.19.14.34.25.44.31h0v-.02c.18-.29.55-.88,1.17-.68.4.13.75.27,1.26.5.22.1.44.21.65.33.56.33.4.97.35,1.18-.15.62-.5,1.12-1.03,1.47-.37.25-.82.34-1.26.34ZM26.02,86.8c-.58,0-1.05.27-1.31.76-.37.69-.27,1.55.3,2.62.48.9,1.14,1.77,2.01,2.66.43.44.92.82,1.45,1.15.22.14.43.23.6.29.46.15,1.14.22,1.58-.08.36-.24.58-.56.69-.99.05-.21.03-.26.03-.27-.19-.11-.37-.2-.56-.29-.49-.21-.82-.35-1.19-.47-.02.03-.15.24-.2.33l-.07.11c-.09.14-.22.25-.37.3-.33.12-.65-.07-.75-.13-.11-.07-.26-.18-.47-.33-.85-.63-1.49-1.46-1.9-2.45-.08-.19-.12-.36-.13-.52h0c0-.13.01-.44.41-.62l.23-.1c.17-.07.24-.1.31-.16-.01,0-.02-.05-.03-.09-.07-.42-.17-.88-.3-1.42-.04-.16-.1-.26-.15-.29h0s-.03,0-.08-.01c-.04,0-.08,0-.11,0Z"/>
  </g>
</svg>