<?xml version="1.0" encoding="UTF-8"?>
<svg id="Layer_3" data-name="Layer 3" xmlns="http://www.w3.org/2000/svg" viewBox="0 0 252.28 144.57">
  <defs>
    <style>
      .cls-1 {
        fill: #e7e5e3;
      }
    </style>
  </defs>
  <rect width="252.28" height="144.57"/>
  <g>
    <path class="cls-1" d="M198.74,83.86l12.69,21.97c.23.39.11.58-.34.58h-17.15c-.36,0-.63-.15-.81-.46l-20.83-36.08c-.11-.19-.05-.44.15-.55.06-.04.14-.06.21-.05,4.71.09,9.36.1,13.97.04,2.04-.03,3.64-.28,4.8-.75,3.67-1.52,5.34-5.58,4.13-9.26-1.15-3.53-3.73-5.29-7.75-5.28-13.31.03-20.95.03-22.92.02-1.16,0-2.03-.5-2.61-1.51l-8.04-13.93c-.06-.11-.03-.25.08-.32.03-.02.07-.03.11-.03,15.25-.16,27.36-.09,36.33.22,12.91.44,22.17,12.73,20.91,25.35-.81,8.14-5.01,14.37-12.58,18.7-.47.27-.63.88-.36,1.35Z"/>
    <path class="cls-1" d="M130.1,61.66c.34,0,.61-.17.81-.52,3.64-6.36,7.98-13.85,13.01-22.48.1-.16.19-.16.28,0l38.85,67.29c.07.13.03.3-.1.37-.04.02-.09.04-.13.04h-16.81c-.67,0-1.29-.36-1.62-.94l-19.97-34.58c-.12-.21-.39-.28-.59-.16-.07.04-.12.09-.16.16-1.43,2.51-2.56,4.43-3.38,5.74-.79,1.25-.78,2.5,0,3.73.6.93,5.57,9.49,14.91,25.69.07.12.03.28-.1.36-.04.02-.09.04-.13.04h-17.4c-.34,0-.59-.14-.76-.43-1.85-3.06-3.86-6.6-6.02-10.62-.22-.41-.45-.62-.69-.62s-.46.21-.68.62c-2.17,4.02-4.17,7.56-6.02,10.62-.17.28-.43.43-.76.43h-17.4c-.15-.01-.27-.13-.27-.28,0-.05.01-.09.04-.13,9.34-16.19,14.31-24.75,14.91-25.68.79-1.24.8-2.48,0-3.73-.83-1.32-1.95-3.23-3.38-5.74-.12-.21-.39-.28-.59-.16-.07.04-.12.09-.16.16l-19.98,34.57c-.34.58-.95.94-1.62.94h-16.81c-.15,0-.27-.12-.27-.27,0-.05.01-.09.04-.13l38.86-67.28c.09-.16.18-.16.28,0,5.03,8.63,9.36,16.13,13.01,22.48.2.35.47.52.81.52Z"/>
    <polygon class="cls-1" points="78.06 88.87 59.86 88.87 59.86 79.59 83.42 79.59 92.37 64.08 59.86 64.08 59.86 55.92 97.09 55.92 107.34 38.17 40.49 38.17 40.49 106.41 67.93 106.41 78.06 88.87"/>
  </g>
</svg>