<?xml version="1.0" encoding="UTF-8"?>
<svg id="Layer_3" data-name="Layer 3" xmlns="http://www.w3.org/2000/svg" width="89mm" height="51mm" viewBox="0 0 252.28 144.57">
  <rect width="252.28" height="144.57"/>
  <g>
    <path d="M90.79,38.99l5.63,9.78c.1.17.05.26-.15.26h-7.61c-.16,0-.28-.07-.36-.21l-9.24-16.05c-.05-.09-.02-.2.07-.25.03-.02.06-.02.09-.02,2.09.04,4.15.05,6.2.02.9-.01,1.61-.12,2.13-.34,1.63-.68,2.37-2.48,1.83-4.12-.51-1.57-1.65-2.35-3.44-2.35-5.9.01-9.29.01-10.17,0-.51,0-.9-.22-1.16-.67l-3.57-6.2s-.01-.11.04-.14c.01,0,.03-.01.05-.01,6.76-.07,12.14-.04,16.12.1,5.73.2,9.83,5.66,9.27,11.28-.36,3.62-2.22,6.39-5.58,8.32-.21.12-.28.39-.16.6Z" style="fill: #e7e5e3;"/>
    <path d="M60.34,29.11c.15,0,.27-.08.36-.23,1.62-2.83,3.54-6.16,5.77-10,.04-.07.08-.07.12,0l17.23,29.94c.03.06.01.13-.04.16-.02.01-.04.02-.06.02h-7.46c-.3,0-.57-.16-.72-.42l-8.86-15.39c-.05-.09-.17-.12-.26-.07-.03.02-.05.04-.07.07-.63,1.12-1.14,1.97-1.5,2.56-.35.56-.35,1.11,0,1.66.27.41,2.47,4.22,6.62,11.43.03.06.01.13-.04.16-.02.01-.04.02-.06.02h-7.72c-.15,0-.26-.06-.34-.19-.82-1.36-1.71-2.93-2.67-4.72-.1-.18-.2-.28-.3-.28s-.2.09-.3.28c-.96,1.79-1.85,3.36-2.67,4.72-.08.13-.19.19-.34.19h-7.72c-.07,0-.12-.06-.12-.12,0-.02,0-.04.02-.06,4.14-7.2,6.35-11.01,6.62-11.42.35-.55.35-1.1,0-1.66-.37-.59-.87-1.44-1.5-2.56-.05-.09-.17-.12-.26-.07-.03.02-.05.04-.07.07l-8.86,15.38c-.15.26-.42.42-.72.42h-7.46c-.07,0-.12-.06-.12-.12,0-.02,0-.04.02-.06l17.24-29.94c.04-.07.08-.07.12,0,2.23,3.84,4.15,7.18,5.77,10,.09.15.21.23.36.23Z" style="fill: #e7e5e3;"/>
    <polygon points="37.25 41.22 29.18 41.22 29.18 37.09 39.63 37.09 43.6 30.19 29.18 30.19 29.18 26.56 45.69 26.56 50.24 18.66 20.59 18.66 20.59 49.02 32.76 49.02 37.25 41.22" style="fill: #e7e5e3;"/>
  </g>
  <g>
    <g>
      <path d="M29.87,67.78v2.36h-9.06v-12.69h8.85v2.36h-6.15v2.76h5.44v2.28h-5.44v2.94h6.37Z" style="fill: #e7e5e3;"/>
      <path d="M42.69,70.14l-.02-7.61-3.45,6.27h-1.22l-3.43-6.11v7.45h-2.54v-12.69h2.24l4.38,7.89,4.31-7.89h2.22l.03,12.69h-2.54Z" style="fill: #e7e5e3;"/>
      <path d="M55.47,70.14l-2.26-3.53h-2.49v3.53h-2.71v-12.69h5.07c3.13,0,5.08,1.76,5.08,4.6,0,1.9-.89,3.3-2.41,4.01l2.63,4.08h-2.91ZM52.93,59.84h-2.21v4.42h2.21c1.66,0,2.49-.83,2.49-2.21s-.84-2.21-2.49-2.21Z" style="fill: #e7e5e3;"/>
    </g>
    <path d="M69.31,65.16l-1.57,1.78v3.21h-2.69v-12.69h2.69v5.93l5.18-5.93h3.01l-4.85,5.66,5.13,7.03h-3.16l-3.75-4.98Z" style="fill: #e7e5e3;"/>
    <path d="M76.75,57.45c0-.89.65-1.58,1.62-1.58s1.62.65,1.62,1.52c0,.94-.65,1.63-1.62,1.63s-1.62-.69-1.62-1.58ZM77.07,60.39h2.61v9.75h-2.61v-9.75Z" style="fill: #e7e5e3;"/>
    <path d="M87.91,69.67c-.54.42-1.32.62-2.12.62-2.12,0-3.36-1.18-3.36-3.5v-4.01h-1.39v-2.18h1.39v-2.37h2.61v2.37h2.24v2.18h-2.24v3.97c0,.83.42,1.29,1.12,1.29.38,0,.77-.13,1.05-.36l.7,1.99Z" style="fill: #e7e5e3;"/>
    <path d="M88.43,65.26c0-2.94,2.09-5.02,5.02-5.02,1.89,0,3.38.89,4.03,2.48l-2.02,1.18c-.48-.92-1.2-1.34-2.02-1.34-1.32,0-2.36,1-2.36,2.7s1.04,2.7,2.36,2.7c.82,0,1.54-.4,2.02-1.34l2.02,1.2c-.65,1.56-2.14,2.47-4.03,2.47-2.93,0-5.02-2.08-5.02-5.02Z" style="fill: #e7e5e3;"/>
    <path d="M108.12,64.56v5.58h-2.61v-5.15c0-1.58-.67-2.3-1.82-2.3-1.25,0-2.16.83-2.16,2.63v4.82h-2.61v-13.45h2.61v4.71c.7-.76,1.71-1.16,2.86-1.16,2.12,0,3.73,1.34,3.73,4.31Z" style="fill: #e7e5e3;"/>
    <g>
      <path d="M119.34,66.06h-6.81c.25,1.21,1.2,1.96,2.58,1.96.95,0,1.64-.31,2.26-.94l1.39,1.63c-.84,1.03-2.09,1.58-3.71,1.58-3.11,0-5.13-2.12-5.13-5.02s2.06-5.02,4.8-5.02,4.68,1.92,4.68,5.06c0,.22-.03.53-.05.76ZM112.5,64.41h4.43c-.18-1.23-1.04-2.03-2.21-2.03s-2.04.78-2.22,2.03Z" style="fill: #e7e5e3;"/>
      <path d="M130.33,64.56v5.58h-2.61v-5.15c0-1.58-.67-2.3-1.82-2.3-1.25,0-2.16.83-2.16,2.63v4.82h-2.61v-9.75h2.49v1.14c.7-.83,1.76-1.29,2.98-1.29,2.12,0,3.73,1.34,3.73,4.31Z" style="fill: #e7e5e3;"/>
      <path d="M131.83,69.23l.87-2.03c.8.56,2.02.94,3.13.94,1.2,0,1.66-.34,1.66-.89,0-1.6-5.44.04-5.44-3.86,0-1.85,1.54-3.15,4.16-3.15,1.24,0,2.61.31,3.46.85l-.87,2.01c-.89-.54-1.77-.72-2.59-.72-1.17,0-1.67.4-1.67.91,0,1.67,5.43.05,5.43,3.9,0,1.81-1.55,3.1-4.25,3.1-1.52,0-3.06-.45-3.9-1.05Z" style="fill: #e7e5e3;"/>
      <path d="M155.5,70.36l-1.41-1.41c-1.07.91-2.41,1.41-3.91,1.41-2.58,0-4.46-1.45-4.46-3.48,0-1.59.79-2.7,2.58-3.79-.85-.96-1.2-1.78-1.2-2.68,0-1.85,1.44-3.12,3.65-3.12,2.02,0,3.36,1.12,3.36,2.92,0,1.31-.7,2.27-2.29,3.21l2.14,2.16c.25-.56.45-1.23.58-1.98l2.09.71c-.22,1.09-.57,2.07-1.07,2.88l1.37,1.38-1.42,1.79ZM152.55,67.4l-2.83-2.86c-1.07.67-1.46,1.25-1.46,2.03,0,.92.8,1.58,2.09,1.58.8,0,1.56-.25,2.19-.74ZM149.46,60.37c0,.49.18.85.9,1.61,1.15-.67,1.52-1.14,1.52-1.72,0-.62-.4-1.05-1.15-1.05-.8,0-1.27.49-1.27,1.16Z" style="fill: #e7e5e3;"/>
      <path d="M161.76,68.51l1.5-1.96c.64.92,1.34,1.4,2.17,1.4,1.09,0,1.66-.71,1.66-2.1v-6.04h-4.11v-2.36h6.81v8.23c0,3.14-1.46,4.68-4.21,4.68-1.57,0-2.96-.65-3.81-1.85Z" style="fill: #e7e5e3;"/>
      <path d="M171.61,65.26c0-2.94,2.09-5.02,4.95-5.02s4.93,2.08,4.93,5.02-2.07,5.02-4.93,5.02-4.95-2.08-4.95-5.02ZM178.85,65.26c0-1.69-.99-2.7-2.29-2.7s-2.31,1.02-2.31,2.7,1,2.7,2.31,2.7,2.29-1.02,2.29-2.7Z" style="fill: #e7e5e3;"/>
      <path d="M182.92,57.45c0-.89.65-1.58,1.62-1.58s1.62.65,1.62,1.52c0,.94-.65,1.63-1.62,1.63s-1.62-.69-1.62-1.58ZM183.24,60.39h2.61v9.75h-2.61v-9.75Z" style="fill: #e7e5e3;"/>
    </g>
    <path d="M197.47,64.56v5.58h-2.61v-5.15c0-1.58-.67-2.3-1.82-2.3-1.25,0-2.16.83-2.16,2.63v4.82h-2.61v-9.75h2.49v1.14c.7-.83,1.76-1.29,2.98-1.29,2.12,0,3.73,1.34,3.73,4.31Z" style="fill: #e7e5e3;"/>
    <path d="M208.7,66.06h-6.81c.25,1.21,1.2,1.96,2.58,1.96.95,0,1.64-.31,2.26-.94l1.39,1.63c-.84,1.03-2.09,1.58-3.71,1.58-3.11,0-5.13-2.12-5.13-5.02s2.06-5.02,4.8-5.02,4.68,1.92,4.68,5.06c0,.22-.03.53-.05.76ZM201.86,64.41h4.43c-.18-1.23-1.04-2.03-2.21-2.03s-2.04.78-2.22,2.03Z" style="fill: #e7e5e3;"/>
    <path d="M216.08,60.24v2.61c-.22-.02-.38-.04-.59-.04-1.44,0-2.39.85-2.39,2.72v4.6h-2.61v-9.75h2.49v1.29c.63-.94,1.71-1.43,3.09-1.43Z" style="fill: #e7e5e3;"/>
    <path d="M226.89,60.39l-4.06,10.35c-.87,2.36-2.11,3.06-3.73,3.06-.92,0-1.92-.33-2.51-.89l.95-2.01c.4.38.95.62,1.47.62.72,0,1.12-.34,1.47-1.21l.03-.09-3.9-9.83h2.69l2.53,6.62,2.54-6.62h2.51Z" style="fill: #e7e5e3;"/>
  </g>
  <g>
    <path d="M40.25,89.58c0-2.77,1.68-4.34,3.94-4.34s3.94,1.57,3.94,4.34-1.67,4.34-3.94,4.34-3.94-1.57-3.94-4.34ZM45.99,89.58c0-1.91-.74-2.7-1.8-2.7s-1.79.79-1.79,2.7.74,2.7,1.79,2.7,1.8-.79,1.8-2.7Z" style="fill: #e7e5e3;"/>
    <g>
      <path d="M56.32,85.38v1.26l-3.42,7.14h-2.31l3.3-6.81h-3.05v1.37h-1.89v-2.95h7.37Z" style="fill: #e7e5e3;"/>
      <path d="M64.61,89.4c0,2.9-1.9,4.52-4.69,4.52-.97,0-1.9-.2-2.55-.58l.79-1.43c.5.31,1.09.42,1.72.42,1.52,0,2.52-.83,2.59-2.45-.54.49-1.33.76-2.29.76-1.77,0-3.17-1.03-3.17-2.62,0-1.71,1.54-2.79,3.48-2.79,2.55,0,4.11,1.45,4.11,4.16ZM62.23,87.94c0-.72-.59-1.25-1.6-1.25-.91,0-1.54.48-1.54,1.25s.62,1.26,1.56,1.26,1.58-.53,1.58-1.26Z" style="fill: #e7e5e3;"/>
      <path d="M72.59,91.14c0,1.49-1.2,2.78-3.82,2.78-1.27,0-2.61-.32-3.51-.9l.84-1.49c.7.48,1.66.76,2.61.76,1.06,0,1.72-.41,1.72-1.09s-.47-1.09-2.14-1.09h-2.35l.47-4.73h5.61v1.56h-3.84l-.14,1.59h.75c2.72,0,3.8,1.12,3.8,2.6Z" style="fill: #e7e5e3;"/>
      <path d="M77,85.38v8.4h-2.13v-6.84h-1.84v-1.56h3.97Z" style="fill: #e7e5e3;"/>
      <path d="M89.92,91.13c0,1.71-1.54,2.79-3.48,2.79-2.54,0-4.11-1.45-4.11-4.16,0-2.9,1.92-4.52,4.69-4.52.97,0,1.92.2,2.56.58l-.79,1.43c-.51-.31-1.1-.42-1.72-.42-1.54,0-2.52.83-2.59,2.43.54-.49,1.31-.74,2.27-.74,1.77,0,3.17,1.03,3.17,2.61ZM87.86,91.22c0-.77-.62-1.26-1.56-1.26s-1.59.53-1.59,1.26.59,1.25,1.62,1.25c.91,0,1.54-.48,1.54-1.25Z" style="fill: #e7e5e3;"/>
      <path d="M98.29,91.13c0,1.71-1.54,2.79-3.48,2.79-2.54,0-4.11-1.45-4.11-4.16,0-2.9,1.92-4.52,4.69-4.52.97,0,1.92.2,2.56.58l-.79,1.43c-.51-.31-1.1-.42-1.72-.42-1.54,0-2.52.83-2.59,2.43.54-.49,1.31-.74,2.27-.74,1.77,0,3.17,1.03,3.17,2.61ZM96.23,91.22c0-.77-.62-1.26-1.56-1.26s-1.59.53-1.59,1.26.59,1.25,1.62,1.25c.91,0,1.54-.48,1.54-1.25Z" style="fill: #e7e5e3;"/>
      <path d="M107.49,92.01h-1.5v1.76h-2.08v-1.76h-4.95v-1.31l4.34-5.33h2.23l-4.02,5.05h2.47v-1.57h2.01v1.57h1.5v1.58Z" style="fill: #e7e5e3;"/>
      <path d="M118.79,91.14c0,1.49-1.2,2.78-3.82,2.78-1.27,0-2.61-.32-3.51-.9l.84-1.49c.7.48,1.66.76,2.61.76,1.06,0,1.72-.41,1.72-1.09s-.47-1.09-2.14-1.09h-2.35l.47-4.73h5.61v1.56h-3.84l-.14,1.59h.75c2.72,0,3.8,1.12,3.8,2.6Z" style="fill: #e7e5e3;"/>
      <path d="M119.66,89.58c0-2.77,1.68-4.34,3.94-4.34s3.94,1.57,3.94,4.34-1.67,4.34-3.94,4.34-3.94-1.57-3.94-4.34ZM125.4,89.58c0-1.91-.74-2.7-1.8-2.7s-1.79.79-1.79,2.7.74,2.7,1.79,2.7,1.8-.79,1.8-2.7Z" style="fill: #e7e5e3;"/>
      <path d="M136.28,91.34c0,1.58-1.55,2.58-3.89,2.58s-3.86-1-3.86-2.58c0-.9.51-1.57,1.39-1.98-.68-.38-1.06-.97-1.06-1.73,0-1.48,1.45-2.4,3.53-2.4s3.56.92,3.56,2.4c0,.76-.39,1.34-1.08,1.73.89.41,1.41,1.08,1.41,1.98ZM134.13,91.28c0-.74-.67-1.2-1.73-1.2s-1.71.46-1.71,1.2.66,1.21,1.71,1.21,1.73-.47,1.73-1.21ZM130.97,87.72c0,.64.55,1.03,1.42,1.03s1.45-.4,1.45-1.03-.58-1.06-1.45-1.06-1.42.4-1.42,1.06Z" style="fill: #e7e5e3;"/>
    </g>
  </g>
  <g>
    <g>
      <path d="M50.38,112.39c0,2.15-.96,3.37-2.4,3.37-.79,0-1.36-.36-1.6-1.04-.41.67-1.08,1.04-2,1.04-1.51,0-2.7-1.22-2.7-3.04s1.18-3.03,2.7-3.03c.77,0,1.38.28,1.8.79v-.71h1.59v3.89c0,.58.25.77.56.77.54,0,.86-.64.86-2.03,0-2.44-1.75-4.12-4.35-4.12s-4.35,1.83-4.35,4.34,1.71,4.37,4.3,4.37c.74,0,1.57-.16,2.3-.53l.37,1.1c-.71.37-1.75.58-2.68.58-3.38,0-5.61-2.35-5.61-5.52s2.26-5.48,5.66-5.48,5.53,2.22,5.53,5.24ZM46.2,112.73c0-1.04-.62-1.63-1.46-1.63s-1.45.61-1.45,1.63.6,1.66,1.45,1.66,1.46-.6,1.46-1.66Z" style="fill: #e7e5e3;"/>
      <path d="M57.56,112.98h-4.76c.18.8.84,1.3,1.8,1.3.67,0,1.15-.2,1.58-.62l.97,1.08c-.58.68-1.46,1.04-2.59,1.04-2.17,0-3.59-1.4-3.59-3.33s1.44-3.33,3.35-3.33,3.27,1.27,3.27,3.35c0,.14-.02.35-.04.5ZM52.78,111.88h3.1c-.13-.82-.72-1.34-1.54-1.34s-1.43.52-1.55,1.34Z" style="fill: #e7e5e3;"/>
      <path d="M69.2,111.98v3.7h-1.82v-3.41c0-1.04-.46-1.53-1.19-1.53-.82,0-1.39.54-1.39,1.69v3.24h-1.82v-3.41c0-1.04-.43-1.53-1.19-1.53-.81,0-1.38.54-1.38,1.69v3.24h-1.82v-6.46h1.74v.75c.47-.55,1.17-.84,1.98-.84.88,0,1.62.35,2.07,1.06.5-.66,1.32-1.06,2.27-1.06,1.5,0,2.57.89,2.57,2.86Z" style="fill: #e7e5e3;"/>
    </g>
    <g>
      <path d="M74.51,109.12v1.73c-.15-.01-.27-.02-.41-.02-1.01,0-1.67.56-1.67,1.8v3.05h-1.82v-6.46h1.74v.85c.44-.62,1.19-.95,2.16-.95Z" style="fill: #e7e5e3;"/>
      <path d="M78.06,113.15l-.88.89v1.65h-1.82v-8.91h1.82v5.04l2.66-2.59h2.17l-2.62,2.74,2.85,3.72h-2.21l-1.99-2.53Z" style="fill: #e7e5e3;"/>
    </g>
    <path d="M82.57,107.27c0-.59.46-1.04,1.13-1.04s1.13.43,1.13,1.01c0,.62-.46,1.08-1.13,1.08s-1.13-.46-1.13-1.04ZM82.79,109.22h1.82v6.46h-1.82v-6.46Z" style="fill: #e7e5e3;"/>
    <path d="M90.13,115.37c-.37.28-.92.41-1.48.41-1.48,0-2.35-.78-2.35-2.32v-2.65h-.97v-1.44h.97v-1.57h1.82v1.57h1.57v1.44h-1.57v2.63c0,.55.29.85.78.85.27,0,.54-.08.74-.24l.49,1.32Z" style="fill: #e7e5e3;"/>
    <path d="M90.26,112.45c0-1.95,1.46-3.33,3.51-3.33,1.32,0,2.36.59,2.82,1.65l-1.41.78c-.34-.61-.84-.89-1.41-.89-.92,0-1.65.66-1.65,1.79s.72,1.79,1.65,1.79c.57,0,1.08-.26,1.41-.89l1.41.79c-.46,1.03-1.5,1.63-2.82,1.63-2.05,0-3.51-1.38-3.51-3.33Z" style="fill: #e7e5e3;"/>
    <path d="M103.78,111.98v3.7h-1.82v-3.41c0-1.04-.47-1.53-1.27-1.53-.88,0-1.51.55-1.51,1.74v3.19h-1.82v-8.91h1.82v3.12c.49-.5,1.19-.77,2-.77,1.48,0,2.61.89,2.61,2.86Z" style="fill: #e7e5e3;"/>
    <g>
      <path d="M111.38,112.98h-4.76c.18.8.84,1.3,1.8,1.3.67,0,1.15-.2,1.58-.62l.97,1.08c-.58.68-1.46,1.04-2.59,1.04-2.17,0-3.59-1.4-3.59-3.33s1.44-3.33,3.35-3.33,3.27,1.27,3.27,3.35c0,.14-.02.35-.04.5ZM106.6,111.88h3.1c-.13-.82-.72-1.34-1.54-1.34s-1.43.52-1.55,1.34Z" style="fill: #e7e5e3;"/>
      <path d="M118.83,111.98v3.7h-1.82v-3.41c0-1.04-.47-1.53-1.27-1.53-.88,0-1.51.55-1.51,1.74v3.19h-1.82v-6.46h1.74v.76c.49-.55,1.23-.85,2.08-.85,1.48,0,2.61.89,2.61,2.86Z" style="fill: #e7e5e3;"/>
      <path d="M119.63,115.08l.61-1.34c.56.37,1.41.62,2.19.62.84,0,1.16-.23,1.16-.59,0-1.06-3.8.02-3.8-2.56,0-1.23,1.08-2.09,2.91-2.09.87,0,1.82.2,2.42.56l-.61,1.33c-.62-.36-1.24-.48-1.81-.48-.82,0-1.17.26-1.17.6,0,1.1,3.8.04,3.8,2.58,0,1.2-1.09,2.05-2.97,2.05-1.06,0-2.14-.3-2.72-.7Z" style="fill: #e7e5e3;"/>
      <path d="M131.77,111.99v3.69h-1.71v-.8c-.34.59-.99.9-1.92.9-1.47,0-2.35-.84-2.35-1.96s.78-1.93,2.7-1.93h1.45c0-.8-.47-1.27-1.45-1.27-.67,0-1.36.23-1.81.6l-.65-1.31c.69-.5,1.71-.78,2.71-.78,1.92,0,3.03.91,3.03,2.87ZM129.95,113.64v-.66h-1.25c-.85,0-1.12.32-1.12.76,0,.47.39.78,1.03.78.61,0,1.13-.29,1.34-.88Z" style="fill: #e7e5e3;"/>
    </g>
    <path d="M139.62,111.98v3.7h-1.82v-3.41c0-1.04-.47-1.53-1.27-1.53-.88,0-1.51.55-1.51,1.74v3.19h-1.82v-6.46h1.74v.76c.49-.55,1.23-.85,2.08-.85,1.48,0,2.61.89,2.61,2.86Z" style="fill: #e7e5e3;"/>
    <g>
      <path d="M147.5,106.77v8.91h-1.74v-.74c-.46.56-1.12.84-1.96.84-1.78,0-3.14-1.3-3.14-3.33s1.37-3.33,3.14-3.33c.77,0,1.43.25,1.88.78v-3.13h1.82ZM145.71,112.45c0-1.12-.7-1.79-1.6-1.79s-1.61.67-1.61,1.79.7,1.79,1.61,1.79,1.6-.67,1.6-1.79Z" style="fill: #e7e5e3;"/>
      <path d="M147.02,117.75l.49-1.36c.2.14.47.23.77.23.46,0,.75-.3.75-.94v-6.46h1.82v6.45c0,1.49-.85,2.44-2.37,2.44-.56,0-1.11-.11-1.46-.36ZM148.81,107.27c0-.59.46-1.04,1.13-1.04s1.13.43,1.13,1.01c0,.62-.46,1.08-1.13,1.08s-1.13-.46-1.13-1.04Z" style="fill: #e7e5e3;"/>
      <path d="M151.84,112.45c0-1.95,1.46-3.33,3.46-3.33s3.45,1.38,3.45,3.33-1.45,3.33-3.45,3.33-3.46-1.38-3.46-3.33ZM156.9,112.45c0-1.12-.69-1.79-1.6-1.79s-1.61.67-1.61,1.79.7,1.79,1.61,1.79,1.6-.67,1.6-1.79Z" style="fill: #e7e5e3;"/>
      <path d="M159.5,107.27c0-.59.46-1.04,1.13-1.04s1.13.43,1.13,1.01c0,.62-.46,1.08-1.13,1.08s-1.13-.46-1.13-1.04ZM159.72,109.22h1.82v6.46h-1.82v-6.46Z" style="fill: #e7e5e3;"/>
    </g>
    <path d="M169.44,111.98v3.7h-1.82v-3.41c0-1.04-.47-1.53-1.27-1.53-.88,0-1.51.55-1.51,1.74v3.19h-1.82v-6.46h1.74v.76c.49-.55,1.23-.85,2.08-.85,1.48,0,2.61.89,2.61,2.86Z" style="fill: #e7e5e3;"/>
    <path d="M177.04,112.98h-4.76c.18.8.84,1.3,1.8,1.3.67,0,1.15-.2,1.58-.62l.97,1.08c-.58.68-1.46,1.04-2.59,1.04-2.17,0-3.59-1.4-3.59-3.33s1.44-3.33,3.35-3.33,3.27,1.27,3.27,3.35c0,.14-.02.35-.04.5ZM172.26,111.88h3.1c-.13-.82-.72-1.34-1.54-1.34s-1.43.52-1.55,1.34Z" style="fill: #e7e5e3;"/>
    <path d="M181.96,109.12v1.73c-.15-.01-.27-.02-.41-.02-1,0-1.67.56-1.67,1.8v3.05h-1.82v-6.46h1.74v.85c.44-.62,1.19-.95,2.16-.95Z" style="fill: #e7e5e3;"/>
    <path d="M189.28,109.22l-2.84,6.86c-.61,1.56-1.47,2.03-2.61,2.03-.64,0-1.34-.22-1.75-.59l.67-1.33c.28.25.67.41,1.03.41.5,0,.78-.23,1.03-.8l.02-.06-2.72-6.51h1.88l1.76,4.38,1.78-4.38h1.75Z" style="fill: #e7e5e3;"/>
  </g>
  <g>
    <path d="M28.53,103.86c.39,0,.77.01,1.16.02.73.02,1.43.05,2.13.24.86.24,1.56.69,2.12,1.37.67.82.97,1.87,1.03,2.92.01.19.02.37.03.56v5.97c0,.24-.02.52-.05.83-.04.52-.14,1.03-.31,1.51-.29.84-.82,1.54-1.53,2.04-.71.5-1.58.74-2.43.81-.7.05-1.43.06-2.15.07h-2.88c-.6,0-1.21-.02-1.81-.05-1.01-.04-2.06-.27-2.88-.9-.6-.46-1.07-1.06-1.35-1.76-.22-.56-.35-1.13-.39-1.74-.04-.63-.07-1.33-.07-2.09,0-1.36,0-2.67,0-3.8,0-.47.02-.97.06-1.51.04-.66.18-1.28.42-1.86.32-.77.9-1.43,1.58-1.87.66-.42,1.49-.64,2.26-.69.69-.05,1.43-.06,2.15-.07h2.89ZM27.09,118.73c1.11,0,2.11,0,3.24-.05.68-.03,1.38-.16,1.93-.54.47-.32.81-.75,1.01-1.29.24-.63.27-1.27.29-1.98.02-.52.02-1.03.02-1.52,0-1.55,0-2.71,0-3.48,0-.5-.02-.96-.05-1.39-.03-.41-.1-.78-.21-1.13-.26-.79-.83-1.41-1.6-1.69-.37-.14-.77-.22-1.2-.24-1.16-.07-2.4-.06-3.43-.06-1.11,0-2.11,0-3.24.05-.68.03-1.38.16-1.93.54-.47.32-.81.75-1.01,1.29-.24.63-.27,1.27-.29,1.98-.02.52-.02,1.03-.02,1.52,0,1.55,0,2.71,0,3.48,0,.5.02.96.05,1.39.03.41.1.78.21,1.13.26.79.83,1.41,1.6,1.69.37.14.77.22,1.2.24,1.16.07,2.4.06,3.43.06Z" style="fill: #e7e5e3;"/>
    <path d="M31.33,106.69c.53,0,.95.44.95.98s-.43.98-.95.98-.95-.44-.95-.98.43-.98.95-.98Z" style="fill: #e7e5e3;"/>
    <path d="M31.17,112.03c0,2.32-1.83,4.2-4.08,4.2s-4.08-1.88-4.08-4.2,1.83-4.2,4.08-4.2h0c2.25,0,4.08,1.88,4.08,4.2ZM29.73,112.03c0-1.5-1.18-2.72-2.65-2.72h0c-1.46,0-2.65,1.22-2.65,2.72h0c0,1.5,1.18,2.72,2.65,2.72h0c1.46,0,2.65-1.22,2.65-2.72Z" style="fill: #e7e5e3;"/>
  </g>
  <g>
    <path d="M28.77,81.23c.4,0,.79.01,1.19.02.75.02,1.47.05,2.18.24.88.23,1.6.67,2.17,1.32.69.79,1,1.8,1.06,2.81.01.18.02.36.04.54v5.75c0,.23-.02.5-.05.8-.04.5-.14.99-.32,1.45-.3.81-.84,1.48-1.57,1.97-.73.49-1.62.71-2.5.78-.71.05-1.47.06-2.21.07h-2.95c-.62,0-1.24-.02-1.86-.04-1.04-.04-2.11-.26-2.96-.87-.61-.44-1.1-1.02-1.39-1.7-.23-.54-.35-1.09-.4-1.68-.05-.61-.07-1.28-.07-2.02,0-1.31,0-2.58,0-3.66,0-.45.03-.94.06-1.45.04-.63.19-1.23.43-1.79.33-.74.92-1.38,1.63-1.8.68-.41,1.53-.61,2.32-.67.71-.05,1.47-.06,2.21-.07h2.97ZM27.3,95.55c1.13,0,2.16,0,3.33-.05.7-.03,1.41-.15,1.98-.52.48-.31.83-.72,1.04-1.24.24-.6.28-1.23.3-1.91.02-.5.02-.99.03-1.47,0-1.5,0-2.62,0-3.36,0-.48-.02-.92-.05-1.34-.03-.39-.1-.75-.22-1.09-.27-.76-.86-1.36-1.65-1.63-.38-.13-.79-.21-1.23-.24-1.19-.07-2.47-.06-3.52-.06-1.13,0-2.16,0-3.33.05-.7.03-1.41.15-1.98.52-.48.31-.83.72-1.04,1.24-.24.6-.28,1.23-.3,1.91-.02.5-.02.99-.03,1.47,0,1.5,0,2.62,0,3.36,0,.48.02.92.05,1.34.03.39.1.75.22,1.09.27.76.86,1.36,1.65,1.63.38.13.79.21,1.23.24,1.19.07,2.47.06,3.52.06Z" style="fill: #e7e5e3;"/>
    <path d="M29.41,94.04c-.41,0-.81-.07-1.15-.18-.26-.08-.55-.22-.86-.4-.65-.38-1.25-.84-1.78-1.36-1.03-1.01-1.81-2-2.38-3.04-.78-1.4-.89-2.63-.34-3.63.48-.86,1.4-1.33,2.45-1.28.22.01.39.06.54.16.33.21.48.57.55.84.15.59.26,1.1.34,1.54.05.26.11.62-.25.93-.2.17-.39.25-.61.34l-.1.04s.03.08.05.12c.39.91,1,1.67,1.8,2.24.21.15.37.26.48.34h0v-.02c.2-.31.6-.94,1.29-.73.44.14.83.29,1.4.53.24.1.48.22.72.36.62.36.45,1.04.39,1.26-.17.67-.55,1.2-1.14,1.58-.41.27-.91.37-1.4.37ZM25.16,85.04c-.64,0-1.17.29-1.45.81-.41.74-.3,1.66.34,2.8.53.96,1.26,1.89,2.23,2.84.48.47,1.02.88,1.6,1.22.25.14.47.25.67.31.5.16,1.27.23,1.75-.08.4-.26.64-.6.76-1.05.06-.22.04-.28.03-.29-.21-.12-.41-.22-.62-.31-.54-.23-.91-.38-1.31-.5-.02.03-.16.25-.22.35l-.07.12c-.1.15-.24.26-.4.32-.36.13-.72-.08-.83-.14-.12-.08-.29-.2-.51-.36-.94-.68-1.65-1.56-2.11-2.62-.09-.21-.14-.39-.15-.55h0c-.01-.14.01-.47.45-.66l.25-.1c.19-.08.26-.11.34-.17-.01,0-.02-.05-.03-.1-.08-.45-.19-.95-.33-1.51-.04-.17-.11-.27-.16-.31h0s-.03,0-.09-.01c-.04,0-.09,0-.13,0Z" style="fill: #e7e5e3;"/>
  </g>
</svg>