<?xml version="1.0" encoding="UTF-8"?>
<svg id="Layer_3" data-name="Layer 3" xmlns="http://www.w3.org/2000/svg" width="75.06mm" height="51mm" viewBox="0 0 212.76 144.57">
  <rect width="212.76" height="144.57"/>
  <g>
    <path d="M84.64,39.9l5.14,8.89c.09.16.05.23-.14.23h-6.94c-.15,0-.26-.06-.33-.19l-8.43-14.6c-.05-.08-.02-.18.06-.22.03-.01.06-.02.08-.02,1.9.04,3.79.04,5.66.02.82-.01,1.47-.11,1.94-.31,1.49-.61,2.16-2.26,1.67-3.75-.46-1.43-1.51-2.14-3.14-2.14-5.39.01-8.48.01-9.28,0-.47,0-.82-.2-1.06-.61l-3.25-5.64s-.01-.1.03-.13c.01,0,.03-.01.04-.01,6.17-.07,11.07-.04,14.71.09,5.23.18,8.97,5.15,8.46,10.26-.33,3.29-2.03,5.82-5.09,7.57-.19.11-.26.36-.14.55Z" style="fill: #e7e5e3;"/>
    <path d="M56.85,30.91c.14,0,.25-.07.33-.21,1.47-2.57,3.23-5.61,5.26-9.1.04-.07.08-.07.11,0l15.72,27.23c.03.05.01.12-.04.15-.02,0-.03.01-.05.01h-6.8c-.27,0-.52-.14-.66-.38l-8.08-14c-.05-.08-.16-.11-.24-.06-.03.02-.05.04-.06.06-.58,1.02-1.04,1.79-1.37,2.32-.32.51-.32,1.01,0,1.51.24.38,2.25,3.84,6.04,10.4.03.05.01.12-.04.15-.02,0-.03.01-.05.02h-7.04c-.14,0-.24-.06-.31-.17-.75-1.24-1.56-2.67-2.44-4.3-.09-.17-.18-.25-.28-.25s-.19.08-.27.25c-.88,1.63-1.69,3.06-2.44,4.3-.07.11-.17.17-.31.17h-7.04c-.06,0-.11-.05-.11-.11,0-.02,0-.04.01-.05,3.78-6.55,5.79-10.02,6.04-10.39.32-.5.32-1,0-1.51-.33-.53-.79-1.31-1.37-2.32-.05-.08-.16-.11-.24-.06-.03.02-.05.04-.06.06l-8.09,13.99c-.14.23-.39.38-.66.38h-6.8c-.06,0-.11-.05-.11-.11,0-.02,0-.04.01-.05l15.73-27.23c.04-.07.07-.07.11,0,2.04,3.49,3.79,6.53,5.26,9.1.08.14.19.21.33.21Z" style="fill: #e7e5e3;"/>
    <polygon points="35.79 41.92 28.42 41.92 28.42 38.16 37.96 38.16 41.59 31.89 28.42 31.89 28.42 28.59 43.49 28.59 47.64 21.4 20.59 21.4 20.59 49.02 31.69 49.02 35.79 41.92" style="fill: #e7e5e3;"/>
  </g>
  <g>
    <g>
      <path d="M27.93,64.54v1.77h-7.39v-9.54h7.21v1.77h-5.01v2.07h4.43v1.72h-4.43v2.21h5.19Z" style="fill: #e7e5e3;"/>
      <path d="M38.36,66.31v-5.72s-2.82,4.71-2.82,4.71h-.99l-2.79-4.59v5.6h-2.07v-9.54h1.83l3.57,5.93,3.52-5.93h1.81l.03,9.54h-2.07Z" style="fill: #e7e5e3;"/>
      <path d="M48.76,66.31l-1.84-2.66h-2.03v2.66h-2.21v-9.54h4.13c2.55,0,4.14,1.32,4.14,3.46,0,1.43-.72,2.48-1.96,3.01l2.14,3.07h-2.37ZM46.69,58.57h-1.8v3.32h1.8c1.35,0,2.03-.63,2.03-1.66s-.68-1.66-2.03-1.66Z" style="fill: #e7e5e3;"/>
    </g>
    <path d="M60.03,62.56l-1.28,1.34v2.41h-2.19v-9.54h2.19v4.46l4.22-4.46h2.45l-3.95,4.25,4.18,5.29h-2.58l-3.05-3.75Z" style="fill: #e7e5e3;"/>
    <path d="M66.09,56.77c0-.67.53-1.19,1.32-1.19s1.32.49,1.32,1.14c0,.71-.53,1.23-1.32,1.23s-1.32-.52-1.32-1.19ZM66.35,58.98h2.13v7.33h-2.13v-7.33Z" style="fill: #e7e5e3;"/>
    <path d="M75.17,65.95c-.44.31-1.08.46-1.73.46-1.73,0-2.74-.89-2.74-2.63v-3.01h-1.13v-1.64h1.13v-1.78h2.13v1.78h1.83v1.64h-1.83v2.98c0,.63.34.97.91.97.31,0,.63-.1.86-.27l.57,1.5Z" style="fill: #e7e5e3;"/>
    <path d="M75.59,62.64c0-2.21,1.7-3.77,4.09-3.77,1.54,0,2.75.67,3.28,1.87l-1.65.89c-.4-.69-.98-1.01-1.65-1.01-1.08,0-1.92.75-1.92,2.03s.84,2.03,1.92,2.03c.67,0,1.25-.3,1.65-1.01l1.65.9c-.53,1.17-1.74,1.85-3.28,1.85-2.38,0-4.09-1.57-4.09-3.77Z" style="fill: #e7e5e3;"/>
    <path d="M91.63,62.11v4.2h-2.13v-3.87c0-1.19-.54-1.73-1.48-1.73-1.02,0-1.76.63-1.76,1.98v3.62h-2.13v-10.11h2.13v3.54c.57-.57,1.39-.87,2.33-.87,1.73,0,3.04,1.01,3.04,3.24Z" style="fill: #e7e5e3;"/>
    <g>
      <path d="M100.77,63.24h-5.55c.2.91.98,1.47,2.1,1.47.78,0,1.34-.23,1.84-.71l1.13,1.23c-.68.78-1.7,1.19-3.02,1.19-2.53,0-4.18-1.59-4.18-3.77s1.68-3.77,3.91-3.77,3.82,1.44,3.82,3.8c0,.16-.03.4-.04.57ZM95.19,62h3.61c-.15-.93-.85-1.53-1.8-1.53s-1.66.59-1.81,1.53Z" style="fill: #e7e5e3;"/>
      <path d="M109.71,62.11v4.2h-2.13v-3.87c0-1.19-.55-1.73-1.49-1.73-1.02,0-1.76.63-1.76,1.98v3.62h-2.13v-7.33h2.03v.86c.57-.63,1.43-.97,2.43-.97,1.73,0,3.04,1.01,3.04,3.24Z" style="fill: #e7e5e3;"/>
      <path d="M110.92,65.63l.71-1.53c.65.42,1.65.71,2.55.71.98,0,1.35-.26,1.35-.67,0-1.2-4.43.03-4.43-2.9,0-1.39,1.25-2.37,3.39-2.37,1.01,0,2.13.23,2.82.64l-.71,1.51c-.72-.41-1.44-.54-2.11-.54-.95,0-1.36.3-1.36.68,0,1.25,4.43.04,4.43,2.93,0,1.36-1.27,2.33-3.46,2.33-1.24,0-2.49-.34-3.17-.79Z" style="fill: #e7e5e3;"/>
      <path d="M130.2,66.47l-1.14-1.06c-.87.68-1.96,1.06-3.19,1.06-2.1,0-3.64-1.09-3.64-2.62,0-1.2.64-2.03,2.1-2.85-.69-.72-.98-1.33-.98-2.02,0-1.39,1.17-2.34,2.97-2.34,1.65,0,2.74.85,2.74,2.19,0,.98-.57,1.7-1.87,2.41l1.74,1.62c.2-.42.37-.93.48-1.49l1.7.53c-.18.82-.46,1.55-.87,2.17l1.12,1.04-1.16,1.35ZM127.8,64.25l-2.3-2.15c-.87.5-1.19.94-1.19,1.53,0,.7.65,1.19,1.7,1.19.65,0,1.27-.19,1.78-.56ZM125.28,58.96c0,.37.15.64.74,1.21.94-.5,1.24-.86,1.24-1.29,0-.46-.33-.79-.94-.79-.65,0-1.04.37-1.04.87Z" style="fill: #e7e5e3;"/>
      <path d="M135.29,65.08l1.23-1.47c.52.69,1.09,1.05,1.77,1.05.89,0,1.35-.53,1.35-1.58v-4.54h-3.35v-1.77h5.55v6.19c0,2.36-1.19,3.52-3.43,3.52-1.28,0-2.41-.49-3.11-1.39Z" style="fill: #e7e5e3;"/>
      <path d="M143.31,62.64c0-2.21,1.7-3.77,4.03-3.77s4.02,1.57,4.02,3.77-1.69,3.77-4.02,3.77-4.03-1.57-4.03-3.77ZM149.21,62.64c0-1.27-.8-2.03-1.87-2.03s-1.88.76-1.88,2.03.82,2.03,1.88,2.03,1.87-.76,1.87-2.03Z" style="fill: #e7e5e3;"/>
      <path d="M152.52,56.77c0-.67.53-1.19,1.32-1.19s1.32.49,1.32,1.14c0,.71-.53,1.23-1.32,1.23s-1.32-.52-1.32-1.19ZM152.78,58.98h2.13v7.33h-2.13v-7.33Z" style="fill: #e7e5e3;"/>
    </g>
    <path d="M164.37,62.11v4.2h-2.13v-3.87c0-1.19-.54-1.73-1.49-1.73-1.02,0-1.76.63-1.76,1.98v3.62h-2.12v-7.33h2.03v.86c.57-.63,1.43-.97,2.42-.97,1.73,0,3.04,1.01,3.04,3.24Z" style="fill: #e7e5e3;"/>
    <path d="M173.51,63.24h-5.55c.2.91.98,1.47,2.1,1.47.78,0,1.33-.23,1.84-.71l1.13,1.23c-.68.78-1.7,1.19-3.03,1.19-2.53,0-4.18-1.59-4.18-3.77s1.68-3.77,3.91-3.77,3.82,1.44,3.82,3.8c0,.16-.03.4-.04.57ZM167.94,62h3.61c-.15-.93-.84-1.53-1.8-1.53s-1.66.59-1.81,1.53Z" style="fill: #e7e5e3;"/>
    <path d="M179.52,58.87v1.96c-.18-.01-.31-.03-.48-.03-1.17,0-1.95.64-1.95,2.04v3.46h-2.12v-7.33h2.03v.97c.52-.71,1.39-1.08,2.52-1.08Z" style="fill: #e7e5e3;"/>
    <path d="M188.32,58.98l-3.31,7.78c-.71,1.77-1.72,2.3-3.04,2.3-.75,0-1.57-.25-2.04-.67l.78-1.51c.33.29.78.46,1.2.46.59,0,.91-.26,1.2-.91l.03-.07-3.17-7.39h2.19l2.06,4.97,2.07-4.97h2.04Z" style="fill: #e7e5e3;"/>
  </g>
  <g>
    <path d="M38.12,90.51c0-2.26,1.25-3.54,2.93-3.54s2.93,1.28,2.93,3.54-1.24,3.54-2.93,3.54-2.93-1.28-2.93-3.54ZM42.38,90.51c0-1.55-.55-2.2-1.34-2.2s-1.33.64-1.33,2.2.55,2.2,1.33,2.2,1.34-.64,1.34-2.2Z" style="fill: #e7e5e3;"/>
    <g>
      <path d="M50.06,87.09v1.03l-2.54,5.81h-1.72l2.45-5.55h-2.27v1.11h-1.41v-2.4h5.48Z" style="fill: #e7e5e3;"/>
      <path d="M56.23,90.36c0,2.36-1.42,3.68-3.49,3.68-.72,0-1.42-.17-1.89-.47l.59-1.16c.37.25.81.34,1.28.34,1.13,0,1.88-.67,1.92-1.99-.4.4-.99.62-1.7.62-1.32,0-2.35-.84-2.35-2.13,0-1.4,1.14-2.28,2.59-2.28,1.89,0,3.06,1.18,3.06,3.39ZM54.46,89.17c0-.59-.44-1.02-1.19-1.02-.67,0-1.14.39-1.14,1.02s.46,1.03,1.16,1.03,1.17-.43,1.17-1.03Z" style="fill: #e7e5e3;"/>
      <path d="M62.16,91.78c0,1.21-.89,2.27-2.84,2.27-.95,0-1.94-.26-2.61-.73l.62-1.21c.52.39,1.23.62,1.94.62.79,0,1.28-.33,1.28-.89s-.35-.89-1.59-.89h-1.75l.35-3.85h4.17v1.27h-2.85l-.11,1.3h.56c2.02,0,2.82.91,2.82,2.12Z" style="fill: #e7e5e3;"/>
      <path d="M65.44,87.09v6.84h-1.58v-5.57h-1.37v-1.27h2.95Z" style="fill: #e7e5e3;"/>
      <path d="M75.04,91.77c0,1.4-1.14,2.28-2.59,2.28-1.88,0-3.06-1.18-3.06-3.39,0-2.36,1.43-3.68,3.49-3.68.72,0,1.43.17,1.9.47l-.59,1.16c-.38-.25-.82-.34-1.28-.34-1.14,0-1.88.67-1.92,1.98.4-.4.98-.61,1.69-.61,1.32,0,2.35.84,2.35,2.13ZM73.51,91.85c0-.62-.46-1.03-1.16-1.03s-1.18.43-1.18,1.03.44,1.02,1.2,1.02c.67,0,1.14-.39,1.14-1.02Z" style="fill: #e7e5e3;"/>
      <path d="M81.27,91.77c0,1.4-1.14,2.28-2.59,2.28-1.88,0-3.06-1.18-3.06-3.39,0-2.36,1.43-3.68,3.49-3.68.72,0,1.43.17,1.9.47l-.59,1.16c-.38-.25-.82-.34-1.28-.34-1.14,0-1.88.67-1.92,1.98.4-.4.98-.61,1.69-.61,1.32,0,2.35.84,2.35,2.13ZM79.73,91.85c0-.62-.46-1.03-1.16-1.03s-1.18.43-1.18,1.03.44,1.02,1.2,1.02c.67,0,1.14-.39,1.14-1.02Z" style="fill: #e7e5e3;"/>
      <path d="M88.1,92.49h-1.11v1.44h-1.54v-1.44h-3.68v-1.06l3.22-4.34h1.66l-2.99,4.11h1.84v-1.28h1.49v1.28h1.11v1.29Z" style="fill: #e7e5e3;"/>
      <path d="M96.51,91.78c0,1.21-.89,2.27-2.84,2.27-.95,0-1.94-.26-2.61-.73l.62-1.21c.52.39,1.23.62,1.94.62.79,0,1.28-.33,1.28-.89s-.35-.89-1.59-.89h-1.75l.35-3.85h4.17v1.27h-2.85l-.11,1.3h.56c2.02,0,2.82.91,2.82,2.12Z" style="fill: #e7e5e3;"/>
      <path d="M97.15,90.51c0-2.26,1.25-3.54,2.93-3.54s2.93,1.28,2.93,3.54-1.24,3.54-2.93,3.54-2.93-1.28-2.93-3.54ZM101.42,90.51c0-1.55-.55-2.2-1.34-2.2s-1.33.64-1.33,2.2.55,2.2,1.33,2.2,1.34-.64,1.34-2.2Z" style="fill: #e7e5e3;"/>
      <path d="M109.51,91.95c0,1.29-1.15,2.1-2.89,2.1s-2.87-.81-2.87-2.1c0-.73.38-1.28,1.04-1.61-.51-.31-.79-.79-.79-1.41,0-1.2,1.07-1.95,2.63-1.95s2.65.75,2.65,1.95c0,.62-.29,1.09-.8,1.41.66.33,1.04.88,1.04,1.61ZM107.91,91.9c0-.61-.5-.98-1.29-.98s-1.27.37-1.27.98.49.99,1.27.99,1.29-.38,1.29-.99ZM105.56,89c0,.52.41.84,1.05.84s1.07-.32,1.07-.84-.43-.86-1.07-.86-1.05.32-1.05.86Z" style="fill: #e7e5e3;"/>
    </g>
  </g>
  <g>
    <g>
      <path d="M47.46,112.48c0,1.75-.8,2.74-2,2.74-.66,0-1.13-.29-1.34-.85-.34.55-.9.85-1.67.85-1.26,0-2.26-1-2.26-2.47s.99-2.46,2.26-2.46c.64,0,1.15.22,1.5.64v-.58h1.33v3.16c0,.47.21.62.47.62.45,0,.72-.52.72-1.65,0-1.98-1.46-3.35-3.63-3.35s-3.63,1.48-3.63,3.53,1.43,3.55,3.59,3.55c.62,0,1.31-.13,1.92-.43l.31.9c-.6.3-1.46.47-2.24.47-2.82,0-4.69-1.91-4.69-4.49s1.88-4.45,4.73-4.45,4.62,1.81,4.62,4.26ZM43.98,112.75c0-.85-.52-1.33-1.22-1.33s-1.21.5-1.21,1.33.5,1.35,1.21,1.35,1.22-.49,1.22-1.35Z" style="fill: #e7e5e3;"/>
      <path d="M53.47,112.96h-3.97c.15.65.7,1.05,1.5,1.05.56,0,.96-.17,1.32-.51l.81.88c-.49.56-1.22.85-2.17.85-1.82,0-3-1.14-3-2.71s1.2-2.71,2.8-2.71,2.73,1.04,2.73,2.72c0,.12-.02.28-.03.41ZM49.48,112.07h2.59c-.11-.66-.61-1.09-1.29-1.09s-1.19.42-1.3,1.09Z" style="fill: #e7e5e3;"/>
      <path d="M63.2,112.15v3.01h-1.52v-2.77c0-.85-.38-1.24-1-1.24-.68,0-1.16.44-1.16,1.38v2.64h-1.52v-2.77c0-.85-.36-1.24-1-1.24-.67,0-1.15.44-1.15,1.38v2.64h-1.52v-5.25h1.46v.61c.39-.45.98-.68,1.65-.68.73,0,1.36.28,1.73.86.42-.54,1.1-.86,1.89-.86,1.25,0,2.15.72,2.15,2.32Z" style="fill: #e7e5e3;"/>
    </g>
    <g>
      <path d="M67.64,109.82v1.41c-.13,0-.22-.02-.34-.02-.84,0-1.4.46-1.4,1.46v2.48h-1.52v-5.25h1.46v.69c.37-.51,1-.77,1.81-.77Z" style="fill: #e7e5e3;"/>
      <path d="M70.61,113.09l-.73.72v1.34h-1.52v-7.25h1.52v4.1l2.23-2.11h1.82l-2.19,2.23,2.38,3.03h-1.85l-1.66-2.06Z" style="fill: #e7e5e3;"/>
    </g>
    <path d="M74.38,108.32c0-.48.38-.85.95-.85s.95.35.95.82c0,.51-.38.88-.95.88s-.95-.37-.95-.85ZM74.57,109.9h1.52v5.25h-1.52v-5.25Z" style="fill: #e7e5e3;"/>
    <path d="M80.7,114.9c-.31.22-.77.33-1.24.33-1.24,0-1.96-.63-1.96-1.88v-2.16h-.81v-1.17h.81v-1.28h1.52v1.28h1.31v1.17h-1.31v2.14c0,.45.24.69.65.69.22,0,.45-.07.62-.2l.41,1.07Z" style="fill: #e7e5e3;"/>
    <path d="M80.81,112.53c0-1.58,1.22-2.71,2.93-2.71,1.1,0,1.97.48,2.35,1.34l-1.18.63c-.28-.5-.7-.72-1.18-.72-.77,0-1.38.54-1.38,1.46s.61,1.46,1.38,1.46c.48,0,.9-.21,1.18-.72l1.18.64c-.38.84-1.25,1.33-2.35,1.33-1.71,0-2.93-1.12-2.93-2.71Z" style="fill: #e7e5e3;"/>
    <path d="M92.11,112.15v3.01h-1.52v-2.77c0-.85-.39-1.24-1.06-1.24-.73,0-1.26.45-1.26,1.42v2.6h-1.52v-7.25h1.52v2.54c.41-.41,1-.62,1.67-.62,1.24,0,2.18.72,2.18,2.32Z" style="fill: #e7e5e3;"/>
    <g>
      <path d="M98.47,112.96h-3.97c.15.65.7,1.05,1.5,1.05.56,0,.96-.17,1.32-.51l.81.88c-.49.56-1.22.85-2.17.85-1.82,0-3-1.14-3-2.71s1.2-2.71,2.8-2.71,2.73,1.04,2.73,2.72c0,.12-.02.28-.03.41ZM94.48,112.07h2.59c-.11-.66-.61-1.09-1.29-1.09s-1.19.42-1.3,1.09Z" style="fill: #e7e5e3;"/>
      <path d="M104.69,112.15v3.01h-1.52v-2.77c0-.85-.39-1.24-1.06-1.24-.73,0-1.26.45-1.26,1.42v2.6h-1.52v-5.25h1.46v.62c.41-.45,1.03-.69,1.74-.69,1.24,0,2.18.72,2.18,2.32Z" style="fill: #e7e5e3;"/>
      <path d="M105.37,114.67l.51-1.09c.47.3,1.18.51,1.83.51.7,0,.97-.19.97-.48,0-.86-3.17.02-3.17-2.08,0-1,.9-1.7,2.43-1.7.72,0,1.52.17,2.02.46l-.51,1.08c-.52-.29-1.04-.39-1.51-.39-.68,0-.98.21-.98.49,0,.9,3.17.03,3.17,2.1,0,.98-.91,1.67-2.48,1.67-.89,0-1.79-.24-2.28-.57Z" style="fill: #e7e5e3;"/>
      <path d="M115.52,112.16v3h-1.43v-.65c-.28.48-.83.73-1.6.73-1.23,0-1.96-.68-1.96-1.59s.65-1.57,2.26-1.57h1.21c0-.65-.39-1.04-1.21-1.04-.56,0-1.13.19-1.51.49l-.55-1.06c.58-.41,1.43-.63,2.27-.63,1.6,0,2.53.74,2.53,2.33ZM113.99,113.5v-.54h-1.04c-.71,0-.94.26-.94.62,0,.38.32.63.86.63.51,0,.95-.23,1.12-.71Z" style="fill: #e7e5e3;"/>
    </g>
    <path d="M122.07,112.15v3.01h-1.52v-2.77c0-.85-.39-1.24-1.06-1.24-.73,0-1.26.45-1.26,1.42v2.6h-1.52v-5.25h1.46v.62c.41-.45,1.03-.69,1.74-.69,1.24,0,2.18.72,2.18,2.32Z" style="fill: #e7e5e3;"/>
    <g>
      <path d="M128.67,107.91v7.25h-1.46v-.61c-.38.46-.94.68-1.64.68-1.48,0-2.63-1.05-2.63-2.71s1.14-2.71,2.63-2.71c.64,0,1.19.21,1.57.63v-2.55h1.52ZM127.17,112.53c0-.91-.59-1.46-1.34-1.46s-1.35.55-1.35,1.46.59,1.46,1.35,1.46,1.34-.55,1.34-1.46Z" style="fill: #e7e5e3;"/>
      <path d="M128.27,116.83l.41-1.1c.17.12.39.19.64.19.38,0,.62-.24.62-.76v-5.25h1.52v5.24c0,1.21-.71,1.98-1.98,1.98-.47,0-.93-.09-1.22-.29ZM129.76,108.32c0-.48.38-.85.95-.85s.95.35.95.82c0,.51-.38.88-.95.88s-.95-.37-.95-.85Z" style="fill: #e7e5e3;"/>
      <path d="M132.29,112.53c0-1.58,1.22-2.71,2.89-2.71s2.88,1.12,2.88,2.71-1.21,2.71-2.88,2.71-2.89-1.12-2.89-2.71ZM136.52,112.53c0-.91-.58-1.46-1.34-1.46s-1.35.55-1.35,1.46.59,1.46,1.35,1.46,1.34-.55,1.34-1.46Z" style="fill: #e7e5e3;"/>
      <path d="M138.7,108.32c0-.48.38-.85.95-.85s.95.35.95.82c0,.51-.38.88-.95.88s-.95-.37-.95-.85ZM138.89,109.9h1.52v5.25h-1.52v-5.25Z" style="fill: #e7e5e3;"/>
    </g>
    <path d="M147,112.15v3.01h-1.52v-2.77c0-.85-.39-1.24-1.06-1.24-.73,0-1.26.45-1.26,1.42v2.6h-1.52v-5.25h1.46v.62c.41-.45,1.03-.69,1.74-.69,1.24,0,2.18.72,2.18,2.32Z" style="fill: #e7e5e3;"/>
    <path d="M153.36,112.96h-3.97c.15.65.7,1.05,1.5,1.05.56,0,.96-.17,1.32-.51l.81.88c-.49.56-1.22.85-2.17.85-1.82,0-3-1.14-3-2.71s1.2-2.71,2.8-2.71,2.73,1.04,2.73,2.72c0,.12-.02.28-.03.41ZM149.37,112.07h2.59c-.11-.66-.61-1.09-1.29-1.09s-1.19.42-1.3,1.09Z" style="fill: #e7e5e3;"/>
    <path d="M157.48,109.82v1.41c-.13,0-.22-.02-.34-.02-.84,0-1.4.46-1.4,1.46v2.48h-1.52v-5.25h1.46v.69c.37-.51,1-.77,1.81-.77Z" style="fill: #e7e5e3;"/>
    <path d="M163.59,109.9l-2.37,5.58c-.51,1.27-1.23,1.65-2.18,1.65-.54,0-1.12-.18-1.46-.48l.56-1.08c.23.21.56.33.86.33.42,0,.65-.19.86-.65l.02-.05-2.28-5.29h1.57l1.47,3.56,1.48-3.56h1.46Z" style="fill: #e7e5e3;"/>
  </g>
  <g>
    <path d="M29.29,105.47c.36,0,.72.01,1.08.02.68.02,1.32.05,1.97.22.79.21,1.45.63,1.96,1.24.62.74.9,1.68.96,2.63,0,.17.02.34.03.5v5.38c0,.21-.02.46-.04.75-.03.47-.13.93-.29,1.36-.27.75-.76,1.39-1.42,1.84-.66.45-1.46.67-2.26.73-.65.05-1.33.06-2,.06h-2.67c-.56,0-1.12-.02-1.68-.04-.94-.04-1.91-.24-2.67-.81-.55-.41-.99-.95-1.25-1.59-.21-.5-.32-1.02-.36-1.57-.04-.57-.06-1.2-.06-1.89,0-1.22,0-2.41,0-3.42,0-.42.02-.88.05-1.36.04-.59.17-1.15.39-1.68.3-.69.83-1.29,1.47-1.68.61-.38,1.38-.57,2.1-.63.64-.05,1.33-.05,2-.06h2.68ZM27.95,118.88c1.03,0,1.96,0,3.01-.04.63-.03,1.28-.14,1.79-.48.44-.29.75-.67.94-1.16.22-.57.25-1.15.27-1.78.01-.47.02-.93.02-1.37,0-1.4,0-2.45,0-3.14,0-.45-.02-.86-.05-1.25-.02-.37-.09-.71-.2-1.02-.24-.71-.77-1.27-1.49-1.53-.35-.12-.72-.2-1.11-.22-1.08-.06-2.23-.06-3.18-.06-1.03,0-1.96,0-3.01.04-.63.03-1.28.15-1.79.48-.44.29-.75.67-.94,1.16-.22.57-.25,1.15-.27,1.78-.01.47-.02.93-.02,1.37,0,1.4,0,2.45,0,3.14,0,.45.02.86.05,1.25.02.37.09.71.2,1.02.24.71.77,1.27,1.49,1.53.35.12.72.2,1.11.22,1.08.06,2.23.06,3.18.06Z" style="fill: #e7e5e3;"/>
    <path d="M31.89,108.02c.49,0,.88.4.88.88s-.4.88-.88.88-.88-.4-.88-.88.4-.88.88-.88Z" style="fill: #e7e5e3;"/>
    <path d="M31.74,112.84c0,2.09-1.69,3.78-3.78,3.78s-3.78-1.69-3.78-3.78,1.69-3.78,3.78-3.78h0c2.09,0,3.78,1.69,3.78,3.78ZM30.41,112.84c0-1.36-1.1-2.45-2.45-2.45h0c-1.36,0-2.45,1.1-2.45,2.45h0c0,1.36,1.1,2.45,2.45,2.45h0c1.36,0,2.45-1.1,2.45-2.45Z" style="fill: #e7e5e3;"/>
  </g>
  <g>
    <path d="M29.29,83.24c.36,0,.72.01,1.08.02.68.02,1.32.05,1.97.22.79.21,1.45.63,1.96,1.24.62.74.9,1.68.96,2.63,0,.17.02.34.03.5v5.38c0,.21-.02.46-.04.75-.03.47-.13.93-.29,1.36-.27.75-.76,1.39-1.42,1.84-.66.45-1.46.67-2.26.73-.65.05-1.33.06-2,.06h-2.67c-.56,0-1.12-.02-1.68-.04-.94-.04-1.91-.24-2.67-.81-.55-.41-.99-.95-1.25-1.59-.21-.5-.32-1.02-.36-1.57-.04-.57-.06-1.2-.06-1.89,0-1.22,0-2.41,0-3.42,0-.42.02-.88.05-1.36.04-.59.17-1.15.39-1.68.3-.69.83-1.29,1.47-1.68.61-.38,1.38-.57,2.1-.63.64-.05,1.33-.05,2-.06h2.68ZM27.95,96.64c1.03,0,1.96,0,3.01-.04.63-.03,1.28-.14,1.79-.48.44-.29.75-.67.94-1.16.22-.57.25-1.15.27-1.78.01-.47.02-.93.02-1.37,0-1.4,0-2.45,0-3.14,0-.45-.02-.86-.05-1.25-.02-.37-.09-.71-.2-1.02-.24-.71-.77-1.27-1.49-1.53-.35-.12-.72-.2-1.11-.22-1.08-.06-2.23-.06-3.18-.06-1.03,0-1.96,0-3.01.04-.63.03-1.28.15-1.79.48-.44.29-.75.67-.94,1.16-.22.57-.25,1.15-.27,1.78-.01.47-.02.93-.02,1.37,0,1.4,0,2.45,0,3.14,0,.45.02.86.05,1.26.02.37.09.71.2,1.02.24.71.77,1.27,1.49,1.53.35.12.72.2,1.11.22,1.08.06,2.23.06,3.18.06Z" style="fill: #e7e5e3;"/>
    <path d="M29.86,95.23c-.37,0-.74-.07-1.04-.17-.24-.08-.5-.2-.78-.37-.59-.36-1.13-.78-1.61-1.27-.93-.94-1.63-1.87-2.15-2.85-.7-1.31-.81-2.46-.3-3.4.43-.81,1.26-1.25,2.21-1.2.2.01.35.06.48.15.3.2.44.54.5.78.13.55.23,1.03.3,1.44.04.25.1.58-.22.87-.18.16-.35.23-.55.31l-.09.04s.02.07.04.12c.35.85.9,1.56,1.63,2.1.19.14.34.25.44.31h0v-.02c.18-.29.55-.88,1.17-.68.4.13.75.27,1.26.5.22.1.44.21.65.33.56.33.4.97.35,1.18-.15.62-.5,1.12-1.03,1.47-.37.25-.82.34-1.26.34ZM26.02,86.8c-.58,0-1.05.27-1.31.76-.37.69-.27,1.55.3,2.62.48.9,1.14,1.77,2.01,2.66.43.44.92.82,1.45,1.15.22.14.43.23.6.29.46.15,1.14.22,1.58-.08.36-.24.58-.56.69-.99.05-.21.03-.26.03-.27-.19-.11-.37-.2-.56-.29-.49-.21-.82-.35-1.19-.47-.02.03-.15.24-.2.33l-.07.11c-.09.14-.22.25-.37.3-.33.12-.65-.07-.75-.13-.11-.07-.26-.18-.47-.33-.85-.63-1.49-1.46-1.9-2.45-.08-.19-.12-.36-.13-.52h0c0-.13.01-.44.41-.62l.22-.1c.17-.07.24-.1.31-.16-.01,0-.02-.05-.03-.09-.07-.42-.17-.88-.3-1.42-.04-.16-.1-.26-.15-.29h0s-.03,0-.08-.01c-.04,0-.08,0-.11,0Z" style="fill: #e7e5e3;"/>
  </g>
</svg>